<svg xmlns="http://www.w3.org/2000/svg" xmlns:xlink="http://www.w3.org/1999/xlink" width="500" zoomAndPan="magnify" viewBox="0 0 375 149.999998" height="200" preserveAspectRatio="xMidYMid meet" version="1.0"><defs><g/><clipPath id="38826fed54"><path d="M 7 63 L 140 63 L 140 85 L 7 85 Z M 7 63 " clip-rule="nonzero"/></clipPath><clipPath id="653d906f59"><path d="M 28.523438 24.574219 L 139.117188 67.140625 L 116.753906 125.234375 L 6.164062 82.667969 Z M 28.523438 24.574219 " clip-rule="nonzero"/></clipPath><clipPath id="d912a50227"><path d="M 28.523438 24.574219 L 139.117188 67.140625 L 116.753906 125.234375 L 6.164062 82.667969 Z M 28.523438 24.574219 " clip-rule="nonzero"/></clipPath><clipPath id="a8d49877b4"><path d="M 28.523438 24.574219 L 139.117188 67.140625 L 116.753906 125.234375 L 6.164062 82.667969 Z M 28.523438 24.574219 " clip-rule="nonzero"/></clipPath><clipPath id="619ad7a09e"><path d="M 28.519531 24.585938 L 139.109375 67.152344 L 116.757812 125.21875 L 6.171875 82.652344 Z M 28.519531 24.585938 " clip-rule="nonzero"/></clipPath><clipPath id="44a6b5e836"><path d="M 0.398438 4 L 35 4 L 35 47 L 0.398438 47 Z M 0.398438 4 " clip-rule="nonzero"/></clipPath><clipPath id="e366c990b7"><path d="M 33 4 L 83.921875 4 L 83.921875 47 L 33 47 Z M 33 4 " clip-rule="nonzero"/></clipPath><clipPath id="1ae3281e1a"><rect x="0" width="84" y="0" height="57"/></clipPath><clipPath id="165068e8b2"><rect x="0" width="138" y="0" height="18"/></clipPath><clipPath id="ca50fc0f70"><path d="M 244 49 L 368 49 L 368 68 L 244 68 Z M 244 49 " clip-rule="nonzero"/></clipPath><clipPath id="5704a8fa29"><path d="M 345.890625 104.046875 L 244.914062 61.691406 L 267.25 8.4375 L 368.226562 50.792969 Z M 345.890625 104.046875 " clip-rule="nonzero"/></clipPath><clipPath id="eb391ab4d3"><path d="M 345.890625 104.046875 L 244.914062 61.691406 L 267.25 8.4375 L 368.226562 50.792969 Z M 345.890625 104.046875 " clip-rule="nonzero"/></clipPath><clipPath id="9802187493"><path d="M 345.890625 104.046875 L 244.914062 61.691406 L 267.25 8.4375 L 368.226562 50.792969 Z M 345.890625 104.046875 " clip-rule="nonzero"/></clipPath><clipPath id="c96d8cc86b"><path d="M 345.894531 104.035156 L 244.921875 61.679688 L 267.246094 8.453125 L 368.222656 50.804688 Z M 345.894531 104.035156 " clip-rule="nonzero"/></clipPath></defs><rect x="-37.5" width="450" fill="#ffffff" y="-15" height="179.999997" fill-opacity="1"/><rect x="-37.5" width="450" fill="#ffffff" y="-15" height="179.999997" fill-opacity="1"/><g clip-path="url(#38826fed54)"><g clip-path="url(#653d906f59)"><g clip-path="url(#d912a50227)"><g clip-path="url(#a8d49877b4)"><g clip-path="url(#619ad7a09e)"><path fill="#000000" d="M 136.324219 68.179688 C 120.1875 74.878906 101.21875 71.679688 83.945312 68.492188 C 64.773438 64.953125 37.917969 60.007812 19.777344 67.613281 C 14.785156 69.710938 9.996094 72.910156 7.988281 77.929688 C 7.152344 80.019531 7.105469 81.371094 7.820312 82.664062 C 8.582031 84.039062 10.820312 84.503906 11.25 83.375 C 11.390625 83 11.269531 82.792969 10.597656 82.257812 C 9.566406 81.445312 9.355469 80.691406 9.671875 78.972656 C 10.164062 76.289062 12.4375 73.257812 15.664062 70.992188 C 23.445312 65.519531 36.375 63.292969 53.066406 64.550781 C 76.230469 66.296875 95.167969 72.972656 115.589844 72.667969 C 123.585938 72.550781 129.550781 71.539062 134.675781 69.429688 C 136.824219 68.542969 139.183594 67.328125 139.097656 67.152344 C 139.050781 67.046875 136.34375 68.1875 136.324219 68.179688 " fill-opacity="1" fill-rule="nonzero"/></g></g></g></g></g><g transform="matrix(1, 0, 0, 1, 152, 31)"><g clip-path="url(#1ae3281e1a)"><g clip-path="url(#44a6b5e836)"><g fill="#000000" fill-opacity="1"><g transform="translate(0.408271, 35.420218)"><g><path d="M 33.1875 -7.515625 C 33.226562 -7.578125 33.320312 -7.613281 33.46875 -7.625 C 33.613281 -7.632812 33.6875 -7.597656 33.6875 -7.515625 C 32.4375 -5.640625 31.3125 -3.800781 30.3125 -2 C 29.320312 -0.195312 28.382812 1.472656 27.5 3.015625 C 26.625 4.566406 25.71875 5.9375 24.78125 7.125 C 23.84375 8.320312 22.789062 9.265625 21.625 9.953125 C 20.46875 10.648438 19.109375 11.019531 17.546875 11.0625 C 15.753906 11.082031 14.179688 10.738281 12.828125 10.03125 C 11.484375 9.332031 10.378906 8.394531 9.515625 7.21875 C 8.648438 6.050781 8.0625 4.753906 7.75 3.328125 C 7.4375 1.898438 7.4375 0.460938 7.75 -0.984375 C 8.0625 -2.441406 8.703125 -3.800781 9.671875 -5.0625 C 10.640625 -6.332031 11.960938 -7.390625 13.640625 -8.234375 C 15.328125 -9.078125 17.410156 -9.59375 19.890625 -9.78125 C 19.078125 -9.90625 18.25 -10.222656 17.40625 -10.734375 C 16.5625 -11.253906 15.789062 -11.941406 15.09375 -12.796875 C 14.40625 -13.660156 13.867188 -14.710938 13.484375 -15.953125 C 13.109375 -17.191406 12.960938 -18.609375 13.046875 -20.203125 C 11.171875 -20.929688 9.523438 -21.328125 8.109375 -21.390625 C 6.691406 -21.453125 5.476562 -21.273438 4.46875 -20.859375 C 3.46875 -20.441406 2.675781 -19.863281 2.09375 -19.125 C 1.507812 -18.394531 1.113281 -17.585938 0.90625 -16.703125 C 0.707031 -15.816406 0.6875 -14.9375 0.84375 -14.0625 C 1.007812 -13.1875 1.347656 -12.398438 1.859375 -11.703125 C 2.367188 -11.015625 3.035156 -10.488281 3.859375 -10.125 C 4.691406 -9.769531 5.675781 -9.675781 6.8125 -9.84375 C 7.21875 -9.820312 7.4375 -9.71875 7.46875 -9.53125 C 7.5 -9.351562 7.425781 -9.21875 7.25 -9.125 C 7.082031 -9.03125 6.894531 -9.078125 6.6875 -9.265625 C 5.507812 -9.097656 4.476562 -9.210938 3.59375 -9.609375 C 2.707031 -10.003906 1.988281 -10.582031 1.4375 -11.34375 C 0.882812 -12.113281 0.507812 -12.972656 0.3125 -13.921875 C 0.125 -14.867188 0.125 -15.828125 0.3125 -16.796875 C 0.507812 -17.765625 0.90625 -18.648438 1.5 -19.453125 C 2.09375 -20.253906 2.914062 -20.882812 3.96875 -21.34375 C 5.03125 -21.800781 6.316406 -22 7.828125 -21.9375 C 9.347656 -21.882812 11.117188 -21.476562 13.140625 -20.71875 C 13.460938 -22.675781 14.035156 -24.335938 14.859375 -25.703125 C 15.691406 -27.066406 16.679688 -28.144531 17.828125 -28.9375 C 18.984375 -29.738281 20.21875 -30.273438 21.53125 -30.546875 C 22.84375 -30.816406 24.128906 -30.84375 25.390625 -30.625 C 26.742188 -30.394531 27.8125 -29.96875 28.59375 -29.34375 C 29.375 -28.726562 29.867188 -28.003906 30.078125 -27.171875 C 30.296875 -26.335938 30.25 -25.476562 29.9375 -24.59375 C 29.625 -23.707031 29.0625 -22.875 28.25 -22.09375 C 27.445312 -21.320312 26.40625 -20.6875 25.125 -20.1875 C 23.84375 -19.6875 22.347656 -19.394531 20.640625 -19.3125 C 18.941406 -19.226562 17.035156 -19.441406 14.921875 -19.953125 C 14.835938 -18.898438 14.859375 -17.84375 14.984375 -16.78125 C 15.117188 -15.71875 15.40625 -14.71875 15.84375 -13.78125 C 16.28125 -12.84375 16.90625 -12.046875 17.71875 -11.390625 C 18.539062 -10.742188 19.601562 -10.328125 20.90625 -10.140625 C 21.125 -10.117188 21.226562 -10.046875 21.21875 -9.921875 C 21.207031 -9.804688 21.125 -9.71875 20.96875 -9.65625 C 19.738281 -9.53125 18.515625 -9.285156 17.296875 -8.921875 C 15.691406 -8.410156 14.367188 -7.675781 13.328125 -6.71875 C 12.285156 -5.757812 11.488281 -4.675781 10.9375 -3.46875 C 10.382812 -2.257812 10.050781 -1.007812 9.9375 0.28125 C 9.832031 1.582031 9.929688 2.847656 10.234375 4.078125 C 10.546875 5.304688 11.03125 6.410156 11.6875 7.390625 C 12.351562 8.367188 13.175781 9.140625 14.15625 9.703125 C 15.132812 10.265625 16.242188 10.523438 17.484375 10.484375 C 18.953125 10.441406 20.25 10.0625 21.375 9.34375 C 22.507812 8.632812 23.546875 7.675781 24.484375 6.46875 C 25.421875 5.269531 26.328125 3.90625 27.203125 2.375 C 28.078125 0.851562 28.992188 -0.75 29.953125 -2.4375 C 30.910156 -4.132812 31.988281 -5.828125 33.1875 -7.515625 Z M 25.390625 -30.046875 C 24.554688 -30.222656 23.617188 -30.1875 22.578125 -29.9375 C 21.546875 -29.695312 20.519531 -29.207031 19.5 -28.46875 C 18.476562 -27.726562 17.566406 -26.703125 16.765625 -25.390625 C 15.960938 -24.085938 15.394531 -22.453125 15.0625 -20.484375 C 17.425781 -19.953125 19.515625 -19.773438 21.328125 -19.953125 C 23.140625 -20.140625 24.660156 -20.550781 25.890625 -21.1875 C 27.128906 -21.832031 28.0625 -22.59375 28.6875 -23.46875 C 29.320312 -24.34375 29.628906 -25.234375 29.609375 -26.140625 C 29.585938 -27.046875 29.226562 -27.851562 28.53125 -28.5625 C 27.84375 -29.28125 26.796875 -29.773438 25.390625 -30.046875 Z M 25.390625 -30.046875 "/></g></g></g></g><g clip-path="url(#e366c990b7)"><g fill="#000000" fill-opacity="1"><g transform="translate(33.487511, 35.420218)"><g><path d="M 31.171875 10.453125 C 31.890625 10.390625 32.550781 9.90625 33.15625 9 C 33.769531 8.09375 34.351562 6.867188 34.90625 5.328125 C 35.457031 3.796875 35.992188 2.050781 36.515625 0.09375 C 37.046875 -1.863281 37.578125 -3.941406 38.109375 -6.140625 C 38.640625 -8.335938 39.195312 -10.535156 39.78125 -12.734375 C 40.375 -14.941406 41.003906 -17.0625 41.671875 -19.09375 C 42.335938 -21.132812 43.070312 -22.972656 43.875 -24.609375 C 44.675781 -26.253906 45.5625 -27.609375 46.53125 -28.671875 C 47.5 -29.742188 48.570312 -30.40625 49.75 -30.65625 C 49.851562 -30.675781 49.894531 -30.613281 49.875 -30.46875 C 49.851562 -30.320312 49.851562 -30.222656 49.875 -30.171875 C 48.757812 -29.960938 47.738281 -29.328125 46.8125 -28.265625 C 45.882812 -27.210938 45.035156 -25.851562 44.265625 -24.1875 C 43.503906 -22.53125 42.789062 -20.671875 42.125 -18.609375 C 41.46875 -16.554688 40.847656 -14.40625 40.265625 -12.15625 C 39.679688 -9.914062 39.109375 -7.679688 38.546875 -5.453125 C 37.992188 -3.222656 37.445312 -1.117188 36.90625 0.859375 C 36.363281 2.847656 35.789062 4.601562 35.1875 6.125 C 34.59375 7.644531 33.953125 8.835938 33.265625 9.703125 C 32.585938 10.566406 31.859375 10.988281 31.078125 10.96875 C 30.179688 10.925781 29.488281 10.507812 29 9.71875 C 28.507812 8.925781 28.171875 7.84375 27.984375 6.46875 C 27.804688 5.09375 27.734375 3.515625 27.765625 1.734375 C 27.796875 -0.0351562 27.867188 -1.929688 27.984375 -3.953125 C 28.109375 -5.984375 28.234375 -8.039062 28.359375 -10.125 C 28.484375 -12.21875 28.5625 -14.253906 28.59375 -16.234375 C 28.625 -18.222656 28.5625 -20.070312 28.40625 -21.78125 C 28.25 -23.5 27.9375 -25 27.46875 -26.28125 C 27 -27.5625 26.332031 -28.535156 25.46875 -29.203125 C 24.601562 -29.867188 23.476562 -30.140625 22.09375 -30.015625 C 20.53125 -29.867188 19.066406 -29.363281 17.703125 -28.5 C 16.347656 -27.632812 15.148438 -26.4375 14.109375 -24.90625 C 13.078125 -23.375 12.273438 -21.535156 11.703125 -19.390625 C 11.128906 -17.242188 10.84375 -14.828125 10.84375 -12.140625 C 12.5625 -11.253906 13.90625 -10.34375 14.875 -9.40625 C 15.851562 -8.46875 16.519531 -7.5625 16.875 -6.6875 C 17.238281 -5.8125 17.390625 -5.019531 17.328125 -4.3125 C 17.265625 -3.613281 17.054688 -3.039062 16.703125 -2.59375 C 16.347656 -2.144531 15.9375 -1.890625 15.46875 -1.828125 C 14.664062 -1.710938 13.863281 -1.988281 13.0625 -2.65625 C 12.257812 -3.332031 11.582031 -4.425781 11.03125 -5.9375 C 10.476562 -7.457031 10.179688 -9.429688 10.140625 -11.859375 C 8.472656 -12.515625 7.003906 -12.804688 5.734375 -12.734375 C 4.472656 -12.660156 3.429688 -12.332031 2.609375 -11.75 C 1.785156 -11.164062 1.191406 -10.425781 0.828125 -9.53125 C 0.460938 -8.632812 0.359375 -7.679688 0.515625 -6.671875 C 0.679688 -5.671875 1.117188 -4.726562 1.828125 -3.84375 L 0.984375 -3.84375 C 0.328125 -4.90625 -0.0234375 -5.984375 -0.078125 -7.078125 C -0.128906 -8.179688 0.0703125 -9.191406 0.53125 -10.109375 C 0.988281 -11.023438 1.675781 -11.769531 2.59375 -12.34375 C 3.507812 -12.914062 4.609375 -13.222656 5.890625 -13.265625 C 7.179688 -13.304688 8.617188 -12.988281 10.203125 -12.3125 C 10.304688 -15.3125 10.710938 -17.953125 11.421875 -20.234375 C 12.140625 -22.515625 13.070312 -24.425781 14.21875 -25.96875 C 15.375 -27.519531 16.664062 -28.675781 18.09375 -29.4375 C 19.519531 -30.207031 21 -30.5625 22.53125 -30.5 C 24.15625 -30.4375 25.5 -30.003906 26.5625 -29.203125 C 27.632812 -28.398438 28.472656 -27.320312 29.078125 -25.96875 C 29.679688 -24.613281 30.109375 -23.054688 30.359375 -21.296875 C 30.617188 -19.546875 30.753906 -17.671875 30.765625 -15.671875 C 30.773438 -13.679688 30.707031 -11.65625 30.5625 -9.59375 C 30.414062 -7.539062 30.242188 -5.53125 30.046875 -3.5625 C 29.859375 -1.59375 29.691406 0.25 29.546875 1.96875 C 29.410156 3.6875 29.351562 5.1875 29.375 6.46875 C 29.394531 7.757812 29.535156 8.753906 29.796875 9.453125 C 30.066406 10.160156 30.523438 10.492188 31.171875 10.453125 Z M 15.671875 -2.265625 C 15.960938 -2.328125 16.21875 -2.5625 16.4375 -2.96875 C 16.664062 -3.375 16.78125 -3.890625 16.78125 -4.515625 C 16.78125 -5.148438 16.59375 -5.851562 16.21875 -6.625 C 15.851562 -7.40625 15.234375 -8.222656 14.359375 -9.078125 C 13.484375 -9.929688 12.273438 -10.773438 10.734375 -11.609375 C 10.847656 -9.554688 11.078125 -7.894531 11.421875 -6.625 C 11.773438 -5.363281 12.195312 -4.394531 12.6875 -3.71875 C 13.175781 -3.050781 13.679688 -2.613281 14.203125 -2.40625 C 14.734375 -2.207031 15.222656 -2.160156 15.671875 -2.265625 Z M 15.671875 -2.265625 "/></g></g></g></g></g></g><g transform="matrix(1, 0, 0, 1, 128, 87)"><g clip-path="url(#165068e8b2)"><g fill="#000000" fill-opacity="1"><g transform="translate(1.18032, 12.947387)"><g><path d="M 7.328125 -1.34375 C 7.253906 -0.976562 7.191406 -0.671875 7.140625 -0.421875 C 7.085938 -0.171875 7.054688 -0.03125 7.046875 0 L 0.578125 0 L 0.578125 -0.203125 C 0.796875 -0.203125 0.960938 -0.265625 1.078125 -0.390625 C 1.191406 -0.515625 1.25 -0.71875 1.25 -1 L 1.25 -7.828125 C 1.25 -8.066406 1.195312 -8.253906 1.09375 -8.390625 C 0.988281 -8.535156 0.851562 -8.609375 0.6875 -8.609375 L 0.578125 -8.609375 L 0.578125 -8.828125 L 6.96875 -8.828125 C 6.96875 -8.609375 6.972656 -8.378906 6.984375 -8.140625 C 7.003906 -7.898438 7.019531 -7.675781 7.03125 -7.46875 L 6.84375 -7.46875 L 6.765625 -7.65625 C 6.617188 -7.96875 6.390625 -8.210938 6.078125 -8.390625 C 5.765625 -8.566406 5.421875 -8.65625 5.046875 -8.65625 L 1.90625 -8.65625 L 1.90625 -5.3125 L 4.671875 -5.3125 C 4.992188 -5.3125 5.273438 -5.359375 5.515625 -5.453125 C 5.753906 -5.554688 5.898438 -5.695312 5.953125 -5.875 L 6 -5.96875 L 6.171875 -5.96875 L 6.171875 -4.40625 L 6 -4.40625 L 5.953125 -4.515625 C 5.878906 -4.703125 5.726562 -4.851562 5.5 -4.96875 C 5.269531 -5.09375 4.992188 -5.15625 4.671875 -5.15625 L 1.90625 -5.15625 L 1.90625 -0.171875 L 5.140625 -0.171875 C 5.515625 -0.171875 5.875 -0.257812 6.21875 -0.4375 C 6.5625 -0.613281 6.832031 -0.859375 7.03125 -1.171875 L 7.15625 -1.34375 Z M 7.328125 -1.34375 "/></g></g></g><g fill="#000000" fill-opacity="1"><g transform="translate(10.450709, 12.947387)"><g><path d="M 8.390625 -8.75 C 8.398438 -8.75 8.410156 -8.679688 8.421875 -8.546875 C 8.441406 -8.410156 8.460938 -8.253906 8.484375 -8.078125 C 8.515625 -7.910156 8.535156 -7.75 8.546875 -7.59375 C 8.566406 -7.445312 8.578125 -7.363281 8.578125 -7.34375 L 8.375 -7.34375 L 8.203125 -7.671875 C 8.035156 -7.972656 7.804688 -8.210938 7.515625 -8.390625 C 7.234375 -8.566406 6.945312 -8.65625 6.65625 -8.65625 L 4.828125 -8.65625 L 4.828125 -1 C 4.828125 -0.757812 4.875 -0.566406 4.96875 -0.421875 C 5.070312 -0.273438 5.210938 -0.203125 5.390625 -0.203125 L 5.484375 -0.203125 L 5.484375 0 L 3.484375 0 L 3.484375 -0.203125 C 3.703125 -0.203125 3.863281 -0.265625 3.96875 -0.390625 C 4.082031 -0.515625 4.140625 -0.71875 4.140625 -1 L 4.140625 -8.65625 L 2.328125 -8.65625 C 2.035156 -8.65625 1.742188 -8.566406 1.453125 -8.390625 C 1.171875 -8.210938 0.941406 -7.972656 0.765625 -7.671875 L 0.609375 -7.34375 L 0.390625 -7.34375 C 0.390625 -7.375 0.398438 -7.460938 0.421875 -7.609375 C 0.441406 -7.753906 0.460938 -7.910156 0.484375 -8.078125 C 0.503906 -8.253906 0.523438 -8.410156 0.546875 -8.546875 C 0.566406 -8.679688 0.578125 -8.75 0.578125 -8.75 L 0.59375 -8.828125 L 8.390625 -8.828125 Z M 8.390625 -8.75 "/></g></g></g><g fill="#000000" fill-opacity="1"><g transform="translate(20.879846, 12.947387)"><g><path d="M 7.328125 -1.34375 C 7.253906 -0.976562 7.191406 -0.671875 7.140625 -0.421875 C 7.085938 -0.171875 7.054688 -0.03125 7.046875 0 L 0.578125 0 L 0.578125 -0.203125 C 0.796875 -0.203125 0.960938 -0.265625 1.078125 -0.390625 C 1.191406 -0.515625 1.25 -0.71875 1.25 -1 L 1.25 -7.828125 C 1.25 -8.066406 1.195312 -8.253906 1.09375 -8.390625 C 0.988281 -8.535156 0.851562 -8.609375 0.6875 -8.609375 L 0.578125 -8.609375 L 0.578125 -8.828125 L 6.96875 -8.828125 C 6.96875 -8.609375 6.972656 -8.378906 6.984375 -8.140625 C 7.003906 -7.898438 7.019531 -7.675781 7.03125 -7.46875 L 6.84375 -7.46875 L 6.765625 -7.65625 C 6.617188 -7.96875 6.390625 -8.210938 6.078125 -8.390625 C 5.765625 -8.566406 5.421875 -8.65625 5.046875 -8.65625 L 1.90625 -8.65625 L 1.90625 -5.3125 L 4.671875 -5.3125 C 4.992188 -5.3125 5.273438 -5.359375 5.515625 -5.453125 C 5.753906 -5.554688 5.898438 -5.695312 5.953125 -5.875 L 6 -5.96875 L 6.171875 -5.96875 L 6.171875 -4.40625 L 6 -4.40625 L 5.953125 -4.515625 C 5.878906 -4.703125 5.726562 -4.851562 5.5 -4.96875 C 5.269531 -5.09375 4.992188 -5.15625 4.671875 -5.15625 L 1.90625 -5.15625 L 1.90625 -0.171875 L 5.140625 -0.171875 C 5.515625 -0.171875 5.875 -0.257812 6.21875 -0.4375 C 6.5625 -0.613281 6.832031 -0.859375 7.03125 -1.171875 L 7.15625 -1.34375 Z M 7.328125 -1.34375 "/></g></g></g><g fill="#000000" fill-opacity="1"><g transform="translate(30.150236, 12.947387)"><g><path d="M 7.984375 -0.125 L 7.984375 0.015625 L 7.59375 0.015625 C 7.46875 0.015625 7.347656 0.00390625 7.234375 -0.015625 C 7.128906 -0.046875 7.019531 -0.09375 6.90625 -0.15625 C 6.800781 -0.21875 6.679688 -0.3125 6.546875 -0.4375 C 6.421875 -0.5625 6.265625 -0.726562 6.078125 -0.9375 C 5.890625 -1.144531 5.664062 -1.398438 5.40625 -1.703125 C 5.144531 -2.015625 4.828125 -2.382812 4.453125 -2.8125 C 4.398438 -2.800781 4.347656 -2.796875 4.296875 -2.796875 C 4.242188 -2.796875 4.1875 -2.796875 4.125 -2.796875 L 1.96875 -2.796875 L 1.96875 -1 C 1.96875 -0.769531 2.019531 -0.578125 2.125 -0.421875 C 2.226562 -0.273438 2.363281 -0.203125 2.53125 -0.203125 L 2.640625 -0.203125 L 2.640625 0 L 0.609375 0 L 0.609375 -0.203125 L 0.703125 -0.203125 C 0.878906 -0.203125 1.019531 -0.273438 1.125 -0.421875 C 1.226562 -0.578125 1.28125 -0.769531 1.28125 -1 L 1.28125 -7.828125 C 1.28125 -8.066406 1.226562 -8.257812 1.125 -8.40625 C 1.019531 -8.550781 0.878906 -8.625 0.703125 -8.625 L 0.609375 -8.625 L 0.609375 -8.828125 L 4.65625 -8.828125 C 5.082031 -8.828125 5.472656 -8.753906 5.828125 -8.609375 C 6.179688 -8.460938 6.484375 -8.253906 6.734375 -7.984375 C 6.984375 -7.722656 7.175781 -7.40625 7.3125 -7.03125 C 7.445312 -6.65625 7.515625 -6.242188 7.515625 -5.796875 C 7.515625 -5.429688 7.457031 -5.09375 7.34375 -4.78125 C 7.238281 -4.46875 7.082031 -4.1875 6.875 -3.9375 C 6.675781 -3.695312 6.429688 -3.488281 6.140625 -3.3125 C 5.859375 -3.144531 5.535156 -3.015625 5.171875 -2.921875 C 5.734375 -2.253906 6.179688 -1.734375 6.515625 -1.359375 C 6.847656 -0.984375 7.109375 -0.703125 7.296875 -0.515625 C 7.484375 -0.335938 7.617188 -0.226562 7.703125 -0.1875 C 7.796875 -0.144531 7.878906 -0.125 7.953125 -0.125 Z M 4.125 -2.96875 C 4.519531 -2.96875 4.878906 -3.035156 5.203125 -3.171875 C 5.535156 -3.304688 5.816406 -3.5 6.046875 -3.75 C 6.285156 -4 6.46875 -4.296875 6.59375 -4.640625 C 6.726562 -4.992188 6.796875 -5.378906 6.796875 -5.796875 C 6.796875 -6.222656 6.742188 -6.609375 6.640625 -6.953125 C 6.535156 -7.304688 6.390625 -7.609375 6.203125 -7.859375 C 6.015625 -8.109375 5.785156 -8.300781 5.515625 -8.4375 C 5.253906 -8.582031 4.96875 -8.65625 4.65625 -8.65625 L 1.96875 -8.65625 L 1.96875 -2.96875 Z M 4.125 -2.96875 "/></g></g></g><g fill="#000000" fill-opacity="1"><g transform="translate(40.082765, 12.947387)"><g><path d="M 1.46875 -1 C 1.46875 -0.757812 1.515625 -0.566406 1.609375 -0.421875 C 1.710938 -0.273438 1.847656 -0.203125 2.015625 -0.203125 L 2.125 -0.203125 L 2.125 0 L 0.609375 0 L 0.609375 -0.203125 C 0.816406 -0.203125 0.976562 -0.265625 1.09375 -0.390625 C 1.207031 -0.515625 1.265625 -0.71875 1.265625 -1 L 1.265625 -7.828125 C 1.265625 -8.078125 1.210938 -8.269531 1.109375 -8.40625 C 1.003906 -8.550781 0.867188 -8.625 0.703125 -8.625 L 0.609375 -8.625 L 0.609375 -8.828125 L 1.875 -8.828125 L 7.96875 -0.984375 L 7.96875 -7.828125 C 7.96875 -8.078125 7.914062 -8.269531 7.8125 -8.40625 C 7.71875 -8.550781 7.585938 -8.625 7.421875 -8.625 L 7.328125 -8.625 L 7.328125 -8.828125 L 8.84375 -8.828125 L 8.84375 -8.625 C 8.625 -8.625 8.457031 -8.554688 8.34375 -8.421875 C 8.238281 -8.296875 8.1875 -8.097656 8.1875 -7.828125 L 8.1875 0.125 L 7.96875 0.125 L 7.671875 -0.28125 L 1.46875 -8.234375 Z M 1.46875 -1 "/></g></g></g><g fill="#000000" fill-opacity="1"><g transform="translate(50.975401, 12.947387)"><g><path d="M 2.0625 0 L 0.296875 0 L 0.296875 -0.203125 C 0.503906 -0.203125 0.675781 -0.257812 0.8125 -0.375 C 0.957031 -0.5 1.082031 -0.6875 1.1875 -0.9375 L 4.4375 -8.84375 L 4.640625 -8.84375 L 8.015625 -1 C 8.117188 -0.75 8.242188 -0.550781 8.390625 -0.40625 C 8.535156 -0.269531 8.707031 -0.203125 8.90625 -0.203125 L 8.90625 0 L 6.828125 0 L 6.828125 -0.203125 L 6.953125 -0.203125 C 7.109375 -0.203125 7.222656 -0.238281 7.296875 -0.3125 C 7.378906 -0.394531 7.421875 -0.503906 7.421875 -0.640625 C 7.421875 -0.691406 7.414062 -0.742188 7.40625 -0.796875 C 7.394531 -0.847656 7.375 -0.90625 7.34375 -0.96875 C 7.320312 -1.039062 7.285156 -1.128906 7.234375 -1.234375 C 7.191406 -1.335938 7.140625 -1.46875 7.078125 -1.625 C 6.648438 -1.632812 6.242188 -1.695312 5.859375 -1.8125 C 5.484375 -1.9375 5.117188 -2.066406 4.765625 -2.203125 C 4.421875 -2.347656 4.082031 -2.472656 3.75 -2.578125 C 3.425781 -2.691406 3.101562 -2.75 2.78125 -2.75 C 2.539062 -2.75 2.3125 -2.710938 2.09375 -2.640625 C 1.9375 -2.253906 1.8125 -1.945312 1.71875 -1.71875 C 1.625 -1.5 1.550781 -1.328125 1.5 -1.203125 C 1.457031 -1.085938 1.429688 -1 1.421875 -0.9375 C 1.410156 -0.875 1.40625 -0.8125 1.40625 -0.75 C 1.40625 -0.582031 1.445312 -0.445312 1.53125 -0.34375 C 1.625 -0.25 1.757812 -0.203125 1.9375 -0.203125 L 2.0625 -0.203125 Z M 4.3125 -8.046875 L 2.1875 -2.859375 C 2.363281 -2.910156 2.5625 -2.9375 2.78125 -2.9375 C 3.113281 -2.9375 3.441406 -2.878906 3.765625 -2.765625 C 4.097656 -2.660156 4.429688 -2.535156 4.765625 -2.390625 C 5.109375 -2.253906 5.460938 -2.128906 5.828125 -2.015625 C 6.203125 -1.898438 6.59375 -1.832031 7 -1.8125 Z M 4.3125 -8.046875 "/></g></g></g><g fill="#000000" fill-opacity="1"><g transform="translate(61.68043, 12.947387)"><g><path d="M 2.5625 -8.609375 C 2.351562 -8.609375 2.191406 -8.546875 2.078125 -8.421875 C 1.972656 -8.296875 1.921875 -8.097656 1.921875 -7.828125 L 1.921875 -0.171875 L 5.25 -0.171875 C 5.332031 -0.171875 5.445312 -0.179688 5.59375 -0.203125 C 5.75 -0.234375 5.914062 -0.289062 6.09375 -0.375 C 6.269531 -0.46875 6.445312 -0.597656 6.625 -0.765625 C 6.800781 -0.941406 6.945312 -1.179688 7.0625 -1.484375 L 7.171875 -1.453125 C 7.203125 -1.441406 7.226562 -1.429688 7.25 -1.421875 C 7.28125 -1.421875 7.3125 -1.414062 7.34375 -1.40625 C 7.289062 -1.1875 7.25 -0.984375 7.21875 -0.796875 C 7.175781 -0.628906 7.140625 -0.46875 7.109375 -0.3125 C 7.085938 -0.164062 7.066406 -0.0625 7.046875 0 L 0.578125 0 L 0.578125 -0.203125 C 0.796875 -0.203125 0.960938 -0.265625 1.078125 -0.390625 C 1.191406 -0.515625 1.25 -0.71875 1.25 -1 L 1.25 -7.828125 C 1.25 -8.066406 1.195312 -8.253906 1.09375 -8.390625 C 1 -8.535156 0.863281 -8.609375 0.6875 -8.609375 L 0.578125 -8.609375 L 0.578125 -8.828125 L 2.5625 -8.828125 Z M 2.5625 -8.609375 "/></g></g></g><g fill="#000000" fill-opacity="1"><g transform="translate(70.829428, 12.947387)"><g/></g></g><g fill="#000000" fill-opacity="1"><g transform="translate(76.281466, 12.947387)"><g><path d="M 6.21875 -0.765625 C 6.132812 -0.703125 6.015625 -0.625 5.859375 -0.53125 C 5.703125 -0.4375 5.503906 -0.34375 5.265625 -0.25 C 5.023438 -0.164062 4.738281 -0.09375 4.40625 -0.03125 C 4.082031 0.0195312 3.707031 0.046875 3.28125 0.046875 C 2.863281 0.046875 2.484375 -0.00390625 2.140625 -0.109375 C 1.796875 -0.222656 1.503906 -0.375 1.265625 -0.5625 C 1.023438 -0.75 0.835938 -0.976562 0.703125 -1.25 C 0.566406 -1.519531 0.5 -1.816406 0.5 -2.140625 C 0.5 -2.398438 0.550781 -2.65625 0.65625 -2.90625 C 0.769531 -3.164062 0.925781 -3.410156 1.125 -3.640625 C 1.320312 -3.867188 1.5625 -4.078125 1.84375 -4.265625 C 2.125 -4.460938 2.441406 -4.632812 2.796875 -4.78125 C 2.554688 -5.15625 2.363281 -5.507812 2.21875 -5.84375 C 2.082031 -6.175781 2.015625 -6.484375 2.015625 -6.765625 C 2.015625 -7.097656 2.0625 -7.394531 2.15625 -7.65625 C 2.25 -7.914062 2.378906 -8.140625 2.546875 -8.328125 C 2.710938 -8.515625 2.914062 -8.65625 3.15625 -8.75 C 3.394531 -8.851562 3.660156 -8.90625 3.953125 -8.90625 C 4.546875 -8.90625 5.019531 -8.757812 5.375 -8.46875 C 5.726562 -8.1875 5.90625 -7.804688 5.90625 -7.328125 C 5.90625 -7.035156 5.84375 -6.757812 5.71875 -6.5 C 5.601562 -6.238281 5.429688 -6.003906 5.203125 -5.796875 C 4.984375 -5.585938 4.71875 -5.40625 4.40625 -5.25 C 4.09375 -5.101562 3.742188 -5 3.359375 -4.9375 C 3.566406 -4.632812 3.816406 -4.296875 4.109375 -3.921875 C 4.398438 -3.546875 4.703125 -3.171875 5.015625 -2.796875 C 5.210938 -2.597656 5.4375 -2.363281 5.6875 -2.09375 C 5.9375 -1.832031 6.21875 -1.550781 6.53125 -1.25 C 6.789062 -1.488281 7.007812 -1.765625 7.1875 -2.078125 C 7.363281 -2.390625 7.453125 -2.753906 7.453125 -3.171875 C 7.453125 -3.597656 7.332031 -3.976562 7.09375 -4.3125 C 6.851562 -4.65625 6.492188 -4.898438 6.015625 -5.046875 L 6.0625 -5.203125 C 6.375 -5.109375 6.640625 -4.984375 6.859375 -4.828125 C 7.078125 -4.671875 7.253906 -4.5 7.390625 -4.3125 C 7.523438 -4.125 7.625 -3.929688 7.6875 -3.734375 C 7.757812 -3.535156 7.796875 -3.347656 7.796875 -3.171875 C 7.796875 -2.921875 7.75 -2.6875 7.65625 -2.46875 C 7.570312 -2.25 7.46875 -2.050781 7.34375 -1.875 C 7.21875 -1.695312 7.085938 -1.539062 6.953125 -1.40625 C 6.828125 -1.28125 6.726562 -1.1875 6.65625 -1.125 C 6.769531 -1.007812 6.875 -0.90625 6.96875 -0.8125 C 7.0625 -0.726562 7.140625 -0.648438 7.203125 -0.578125 C 7.285156 -0.503906 7.351562 -0.441406 7.40625 -0.390625 C 7.632812 -0.171875 7.847656 0.00390625 8.046875 0.140625 C 8.242188 0.285156 8.429688 0.398438 8.609375 0.484375 C 8.785156 0.578125 8.953125 0.640625 9.109375 0.671875 C 9.273438 0.703125 9.4375 0.71875 9.59375 0.71875 C 9.71875 0.71875 9.84375 0.707031 9.96875 0.6875 L 9.96875 0.78125 C 9.851562 0.800781 9.738281 0.816406 9.625 0.828125 C 9.519531 0.835938 9.410156 0.84375 9.296875 0.84375 C 8.941406 0.84375 8.582031 0.773438 8.21875 0.640625 C 7.851562 0.515625 7.457031 0.28125 7.03125 -0.0625 Z M 2.484375 -7.046875 C 2.484375 -6.753906 2.554688 -6.4375 2.703125 -6.09375 C 2.859375 -5.757812 3.066406 -5.398438 3.328125 -5.015625 C 3.640625 -5.066406 3.925781 -5.160156 4.1875 -5.296875 C 4.445312 -5.441406 4.664062 -5.613281 4.84375 -5.8125 C 5.03125 -6.007812 5.171875 -6.234375 5.265625 -6.484375 C 5.367188 -6.734375 5.421875 -7.003906 5.421875 -7.296875 C 5.421875 -7.742188 5.285156 -8.101562 5.015625 -8.375 C 4.742188 -8.65625 4.378906 -8.796875 3.921875 -8.796875 C 3.484375 -8.796875 3.132812 -8.632812 2.875 -8.3125 C 2.613281 -7.988281 2.484375 -7.566406 2.484375 -7.046875 Z M 6.09375 -0.875 C 5.738281 -1.207031 5.421875 -1.515625 5.140625 -1.796875 C 4.867188 -2.085938 4.640625 -2.351562 4.453125 -2.59375 C 4.140625 -2.957031 3.84375 -3.320312 3.5625 -3.6875 C 3.28125 -4.050781 3.039062 -4.382812 2.84375 -4.6875 C 2.300781 -4.445312 1.867188 -4.117188 1.546875 -3.703125 C 1.234375 -3.296875 1.078125 -2.851562 1.078125 -2.375 C 1.078125 -2.050781 1.132812 -1.757812 1.25 -1.5 C 1.375 -1.238281 1.550781 -1.015625 1.78125 -0.828125 C 2.007812 -0.640625 2.28125 -0.492188 2.59375 -0.390625 C 2.90625 -0.285156 3.25 -0.234375 3.625 -0.234375 C 4.132812 -0.234375 4.597656 -0.285156 5.015625 -0.390625 C 5.429688 -0.503906 5.789062 -0.664062 6.09375 -0.875 Z M 6.09375 -0.875 "/></g></g></g><g fill="#000000" fill-opacity="1"><g transform="translate(86.225033, 12.947387)"><g/></g></g><g fill="#000000" fill-opacity="1"><g transform="translate(91.677071, 12.947387)"><g><path d="M 7.21875 -8.828125 L 8.984375 -8.828125 L 8.984375 -8.609375 C 8.773438 -8.609375 8.597656 -8.550781 8.453125 -8.4375 C 8.316406 -8.320312 8.191406 -8.140625 8.078125 -7.890625 L 4.84375 0 L 4.640625 0 L 1.265625 -7.828125 C 1.160156 -8.078125 1.035156 -8.269531 0.890625 -8.40625 C 0.742188 -8.539062 0.566406 -8.609375 0.359375 -8.609375 L 0.359375 -8.828125 L 2.453125 -8.828125 L 2.453125 -8.609375 L 2.3125 -8.609375 C 2.164062 -8.609375 2.050781 -8.570312 1.96875 -8.5 C 1.894531 -8.425781 1.859375 -8.328125 1.859375 -8.203125 C 1.859375 -8.085938 1.882812 -7.960938 1.9375 -7.828125 L 4.96875 -0.78125 L 7.78125 -7.640625 C 7.84375 -7.796875 7.875 -7.941406 7.875 -8.078125 C 7.875 -8.253906 7.828125 -8.382812 7.734375 -8.46875 C 7.640625 -8.5625 7.507812 -8.609375 7.34375 -8.609375 L 7.21875 -8.609375 Z M 7.21875 -8.828125 "/></g></g></g><g fill="#000000" fill-opacity="1"><g transform="translate(102.426244, 12.947387)"><g><path d="M 9.21875 -4.453125 C 9.21875 -3.847656 9.125 -3.269531 8.9375 -2.71875 C 8.75 -2.175781 8.472656 -1.703125 8.109375 -1.296875 C 7.742188 -0.890625 7.285156 -0.566406 6.734375 -0.328125 C 6.179688 -0.0859375 5.546875 0.03125 4.828125 0.03125 C 4.097656 0.03125 3.457031 -0.0859375 2.90625 -0.328125 C 2.363281 -0.566406 1.910156 -0.890625 1.546875 -1.296875 C 1.179688 -1.703125 0.90625 -2.175781 0.71875 -2.71875 C 0.53125 -3.269531 0.4375 -3.847656 0.4375 -4.453125 C 0.4375 -5.046875 0.53125 -5.613281 0.71875 -6.15625 C 0.90625 -6.695312 1.179688 -7.171875 1.546875 -7.578125 C 1.910156 -7.992188 2.363281 -8.316406 2.90625 -8.546875 C 3.457031 -8.785156 4.097656 -8.90625 4.828125 -8.90625 C 5.546875 -8.90625 6.179688 -8.785156 6.734375 -8.546875 C 7.285156 -8.316406 7.742188 -7.992188 8.109375 -7.578125 C 8.472656 -7.171875 8.75 -6.695312 8.9375 -6.15625 C 9.125 -5.613281 9.21875 -5.046875 9.21875 -4.453125 Z M 4.828125 -0.125 C 5.429688 -0.125 5.957031 -0.238281 6.40625 -0.46875 C 6.863281 -0.707031 7.242188 -1.019531 7.546875 -1.40625 C 7.859375 -1.800781 8.085938 -2.257812 8.234375 -2.78125 C 8.390625 -3.3125 8.46875 -3.867188 8.46875 -4.453125 C 8.46875 -5.023438 8.390625 -5.570312 8.234375 -6.09375 C 8.085938 -6.613281 7.859375 -7.066406 7.546875 -7.453125 C 7.242188 -7.847656 6.863281 -8.160156 6.40625 -8.390625 C 5.957031 -8.628906 5.429688 -8.75 4.828125 -8.75 C 4.222656 -8.75 3.691406 -8.628906 3.234375 -8.390625 C 2.785156 -8.160156 2.40625 -7.847656 2.09375 -7.453125 C 1.78125 -7.066406 1.546875 -6.613281 1.390625 -6.09375 C 1.242188 -5.570312 1.171875 -5.023438 1.171875 -4.453125 C 1.171875 -3.867188 1.242188 -3.3125 1.390625 -2.78125 C 1.546875 -2.257812 1.78125 -1.800781 2.09375 -1.40625 C 2.40625 -1.019531 2.785156 -0.707031 3.234375 -0.46875 C 3.691406 -0.238281 4.222656 -0.125 4.828125 -0.125 Z M 4.828125 -0.125 "/></g></g></g><g fill="#000000" fill-opacity="1"><g transform="translate(113.495444, 12.947387)"><g><path d="M 11.203125 -8.828125 L 12.96875 -8.828125 L 12.96875 -8.625 C 12.769531 -8.625 12.597656 -8.5625 12.453125 -8.4375 C 12.316406 -8.320312 12.195312 -8.140625 12.09375 -7.890625 L 8.84375 0 L 8.640625 0 L 6.6875 -4.5625 L 4.8125 0 L 4.59375 0 L 1.234375 -7.84375 C 1.117188 -8.082031 0.988281 -8.269531 0.84375 -8.40625 C 0.695312 -8.550781 0.523438 -8.625 0.328125 -8.625 L 0.328125 -8.828125 L 2.421875 -8.828125 L 2.421875 -8.625 L 2.28125 -8.625 C 2.132812 -8.625 2.019531 -8.582031 1.9375 -8.5 C 1.851562 -8.425781 1.8125 -8.328125 1.8125 -8.203125 C 1.8125 -8.078125 1.84375 -7.953125 1.90625 -7.828125 L 4.9375 -0.796875 L 6.578125 -4.796875 L 5.265625 -7.84375 C 5.160156 -8.082031 5.035156 -8.269531 4.890625 -8.40625 C 4.742188 -8.550781 4.570312 -8.625 4.375 -8.625 L 4.375 -8.828125 L 6.453125 -8.828125 L 6.453125 -8.625 L 6.328125 -8.625 C 6.171875 -8.625 6.050781 -8.582031 5.96875 -8.5 C 5.894531 -8.425781 5.859375 -8.328125 5.859375 -8.203125 C 5.859375 -8.097656 5.890625 -7.972656 5.953125 -7.828125 L 6.90625 -5.59375 L 7.75 -7.640625 C 7.8125 -7.804688 7.84375 -7.953125 7.84375 -8.078125 C 7.84375 -8.253906 7.796875 -8.390625 7.703125 -8.484375 C 7.609375 -8.578125 7.476562 -8.625 7.3125 -8.625 L 7.171875 -8.625 L 7.171875 -8.828125 L 8.9375 -8.828125 L 8.9375 -8.625 C 8.738281 -8.625 8.566406 -8.5625 8.421875 -8.4375 C 8.285156 -8.320312 8.160156 -8.140625 8.046875 -7.890625 L 7 -5.34375 L 8.96875 -0.796875 L 11.78125 -7.640625 C 11.84375 -7.804688 11.875 -7.953125 11.875 -8.078125 C 11.875 -8.253906 11.828125 -8.390625 11.734375 -8.484375 C 11.640625 -8.578125 11.507812 -8.625 11.34375 -8.625 L 11.203125 -8.625 Z M 11.203125 -8.828125 "/></g></g></g><g fill="#000000" fill-opacity="1"><g transform="translate(128.261604, 12.947387)"><g><path d="M 1.25 -7.265625 C 1.25 -7.035156 1.332031 -6.84375 1.5 -6.6875 C 1.675781 -6.53125 1.90625 -6.382812 2.1875 -6.25 C 2.46875 -6.125 2.785156 -6.003906 3.140625 -5.890625 C 3.492188 -5.773438 3.859375 -5.648438 4.234375 -5.515625 C 4.609375 -5.378906 4.972656 -5.226562 5.328125 -5.0625 C 5.691406 -4.90625 6.007812 -4.710938 6.28125 -4.484375 C 6.5625 -4.253906 6.785156 -3.984375 6.953125 -3.671875 C 7.128906 -3.367188 7.21875 -3.007812 7.21875 -2.59375 C 7.21875 -2.257812 7.132812 -1.929688 6.96875 -1.609375 C 6.8125 -1.296875 6.59375 -1.015625 6.3125 -0.765625 C 6.03125 -0.515625 5.703125 -0.3125 5.328125 -0.15625 C 4.953125 -0.0078125 4.550781 0.0625 4.125 0.0625 C 3.75 0.0625 3.382812 0.046875 3.03125 0.015625 C 2.675781 -0.015625 2.335938 -0.0546875 2.015625 -0.109375 C 1.703125 -0.171875 1.414062 -0.238281 1.15625 -0.3125 C 0.894531 -0.394531 0.675781 -0.488281 0.5 -0.59375 L 0.453125 -1.890625 L 0.671875 -1.890625 L 0.84375 -1.5625 C 1.007812 -1.207031 1.25 -0.914062 1.5625 -0.6875 C 1.875 -0.457031 2.21875 -0.300781 2.59375 -0.21875 C 2.851562 -0.1875 3.109375 -0.160156 3.359375 -0.140625 C 3.609375 -0.117188 3.863281 -0.109375 4.125 -0.109375 C 4.476562 -0.109375 4.8125 -0.171875 5.125 -0.296875 C 5.445312 -0.421875 5.726562 -0.585938 5.96875 -0.796875 C 6.21875 -1.003906 6.410156 -1.238281 6.546875 -1.5 C 6.691406 -1.769531 6.765625 -2.050781 6.765625 -2.34375 C 6.765625 -2.695312 6.675781 -3.003906 6.5 -3.265625 C 6.332031 -3.535156 6.109375 -3.769531 5.828125 -3.96875 C 5.546875 -4.175781 5.222656 -4.359375 4.859375 -4.515625 C 4.503906 -4.671875 4.140625 -4.8125 3.765625 -4.9375 C 3.398438 -5.070312 3.039062 -5.203125 2.6875 -5.328125 C 2.332031 -5.460938 2.007812 -5.609375 1.71875 -5.765625 C 1.4375 -5.921875 1.210938 -6.097656 1.046875 -6.296875 C 0.878906 -6.492188 0.796875 -6.726562 0.796875 -7 C 0.796875 -7.34375 0.875 -7.632812 1.03125 -7.875 C 1.1875 -8.125 1.394531 -8.320312 1.65625 -8.46875 C 1.914062 -8.613281 2.207031 -8.71875 2.53125 -8.78125 C 2.863281 -8.851562 3.203125 -8.890625 3.546875 -8.890625 C 3.804688 -8.890625 4.070312 -8.875 4.34375 -8.84375 C 4.613281 -8.8125 4.875 -8.765625 5.125 -8.703125 C 5.375 -8.640625 5.601562 -8.566406 5.8125 -8.484375 C 6.03125 -8.410156 6.222656 -8.328125 6.390625 -8.234375 C 6.347656 -8.179688 6.328125 -8.144531 6.328125 -8.125 L 6.390625 -8.234375 L 6.4375 -6.921875 L 6.203125 -6.921875 C 6.148438 -7.023438 6.097656 -7.140625 6.046875 -7.265625 C 6.003906 -7.398438 5.953125 -7.523438 5.890625 -7.640625 C 5.828125 -7.773438 5.738281 -7.90625 5.625 -8.03125 C 5.507812 -8.164062 5.359375 -8.28125 5.171875 -8.375 C 4.984375 -8.476562 4.753906 -8.5625 4.484375 -8.625 C 4.210938 -8.6875 3.890625 -8.71875 3.515625 -8.71875 C 3.234375 -8.71875 2.957031 -8.695312 2.6875 -8.65625 C 2.414062 -8.613281 2.171875 -8.535156 1.953125 -8.421875 C 1.742188 -8.316406 1.570312 -8.164062 1.4375 -7.96875 C 1.3125 -7.78125 1.25 -7.546875 1.25 -7.265625 Z M 1.25 -7.265625 "/></g></g></g></g></g><g clip-path="url(#ca50fc0f70)"><g clip-path="url(#5704a8fa29)"><g clip-path="url(#eb391ab4d3)"><g clip-path="url(#9802187493)"><g clip-path="url(#c96d8cc86b)"><path fill="#000000" d="M 247.523438 60.800781 C 262.628906 55.015625 280.066406 58.480469 295.9375 61.886719 C 313.554688 65.671875 338.230469 70.957031 355.210938 64.386719 C 359.886719 62.578125 364.40625 59.734375 366.402344 55.136719 C 367.234375 53.21875 367.320312 51.96875 366.695312 50.753906 C 366.03125 49.460938 363.976562 48.96875 363.546875 50.003906 C 363.40625 50.347656 363.511719 50.542969 364.121094 51.054688 C 365.046875 51.835938 365.21875 52.539062 364.878906 54.125 C 364.347656 56.597656 362.15625 59.347656 359.113281 61.363281 C 351.761719 66.234375 339.75 67.957031 324.359375 66.351562 C 303.003906 64.121094 285.695312 57.441406 266.8125 57.183594 C 259.417969 57.085938 253.878906 57.867188 249.082031 59.6875 C 247.074219 60.449219 244.855469 61.515625 244.929688 61.683594 C 244.972656 61.777344 247.503906 60.792969 247.523438 60.800781 " fill-opacity="1" fill-rule="nonzero"/></g></g></g></g></g></svg>