<svg xmlns="http://www.w3.org/2000/svg" xmlns:xlink="http://www.w3.org/1999/xlink" width="375" zoomAndPan="magnify" viewBox="0 0 281.25 74.999997" height="100" preserveAspectRatio="xMidYMid meet" version="1.0"><defs><clipPath id="62c3dd284d"><path d="M 0 0.101562 L 280.503906 0.101562 L 280.503906 74.898438 L 0 74.898438 Z M 0 0.101562 " clip-rule="nonzero"/></clipPath><clipPath id="6822ac0c39"><path d="M 4 24.339844 L 104 24.339844 L 104 40.90625 L 4 40.90625 Z M 4 24.339844 " clip-rule="nonzero"/></clipPath><clipPath id="ca0d888f4a"><path d="M 20.246094 -4.59375 L 103.851562 27.457031 L 86.945312 71.199219 L 3.34375 39.148438 Z M 20.246094 -4.59375 " clip-rule="nonzero"/></clipPath><clipPath id="cf6e08cc77"><path d="M 20.246094 -4.59375 L 103.851562 27.457031 L 86.945312 71.199219 L 3.34375 39.148438 Z M 20.246094 -4.59375 " clip-rule="nonzero"/></clipPath><clipPath id="4b43894ca4"><path d="M 20.246094 -4.59375 L 103.851562 27.457031 L 86.945312 71.199219 L 3.34375 39.148438 Z M 20.246094 -4.59375 " clip-rule="nonzero"/></clipPath><clipPath id="b188ea384f"><path d="M 20.246094 -4.585938 L 103.847656 27.464844 L 86.949219 71.1875 L 3.351562 39.136719 Z M 20.246094 -4.585938 " clip-rule="nonzero"/></clipPath><clipPath id="f51229f5df"><path d="M 114 3.253906 L 140 3.253906 L 140 35.632812 L 114 35.632812 Z M 114 3.253906 " clip-rule="nonzero"/></clipPath><clipPath id="b7c23f38e0"><path d="M 138.535156 3.253906 L 177 3.253906 L 177 35.632812 L 138.535156 35.632812 Z M 138.535156 3.253906 " clip-rule="nonzero"/></clipPath><clipPath id="9846ea8e8d"><path d="M 183.136719 14 L 276.875 14 L 276.875 28 L 183.136719 28 Z M 183.136719 14 " clip-rule="nonzero"/></clipPath><clipPath id="9049fdcfed"><path d="M 260.164062 55.246094 L 183.828125 23.355469 L 200.714844 -16.746094 L 277.046875 15.148438 Z M 260.164062 55.246094 " clip-rule="nonzero"/></clipPath><clipPath id="88887051cf"><path d="M 260.164062 55.246094 L 183.828125 23.355469 L 200.714844 -16.746094 L 277.046875 15.148438 Z M 260.164062 55.246094 " clip-rule="nonzero"/></clipPath><clipPath id="7d6e5780ec"><path d="M 260.164062 55.246094 L 183.828125 23.355469 L 200.714844 -16.746094 L 277.046875 15.148438 Z M 260.164062 55.246094 " clip-rule="nonzero"/></clipPath><clipPath id="67d462260f"><path d="M 260.164062 55.238281 L 183.835938 23.34375 L 200.710938 -16.734375 L 277.042969 15.15625 Z M 260.164062 55.238281 " clip-rule="nonzero"/></clipPath></defs><g clip-path="url(#62c3dd284d)"><path fill="#ffffff" d="M 0 0.101562 L 280.503906 0.101562 L 280.503906 74.898438 L 0 74.898438 Z M 0 0.101562 " fill-opacity="1" fill-rule="nonzero"/><path fill="#ffffff" d="M 0 0.101562 L 280.503906 0.101562 L 280.503906 74.898438 L 0 74.898438 Z M 0 0.101562 " fill-opacity="1" fill-rule="nonzero"/><rect x="-28.125" width="337.5" fill="#ffffff" y="-7.5" height="89.999996" fill-opacity="1"/><rect x="-28.125" width="337.5" fill="#ffffff" y="-7.5" height="89.999996" fill-opacity="1"/></g><g clip-path="url(#6822ac0c39)"><g clip-path="url(#ca0d888f4a)"><g clip-path="url(#cf6e08cc77)"><g clip-path="url(#4b43894ca4)"><g clip-path="url(#b188ea384f)"><path fill="#000000" d="M 101.742188 28.238281 C 89.542969 33.285156 75.203125 30.875 62.144531 28.476562 C 47.652344 25.808594 27.351562 22.085938 13.636719 27.8125 C 9.863281 29.390625 6.242188 31.800781 4.722656 35.582031 C 4.09375 37.15625 4.058594 38.171875 4.597656 39.144531 C 5.171875 40.179688 6.863281 40.53125 7.191406 39.679688 C 7.296875 39.398438 7.203125 39.242188 6.695312 38.839844 C 5.917969 38.226562 5.757812 37.660156 5.996094 36.367188 C 6.367188 34.347656 8.085938 32.0625 10.527344 30.355469 C 16.410156 26.238281 26.183594 24.558594 38.800781 25.507812 C 56.3125 26.820312 70.628906 31.847656 86.066406 31.617188 C 92.109375 31.53125 96.621094 30.769531 100.492188 29.179688 C 102.117188 28.511719 103.902344 27.597656 103.835938 27.464844 C 103.800781 27.386719 101.753906 28.246094 101.742188 28.238281 " fill-opacity="1" fill-rule="nonzero"/></g></g></g></g></g><g clip-path="url(#f51229f5df)"><path fill="#000000" d="M 138.988281 21.253906 C 139.015625 21.207031 139.085938 21.183594 139.199219 21.171875 C 139.308594 21.167969 139.363281 21.195312 139.363281 21.253906 C 138.421875 22.667969 137.570312 24.050781 136.8125 25.410156 C 136.0625 26.765625 135.355469 28.023438 134.6875 29.183594 C 134.027344 30.351562 133.339844 31.386719 132.632812 32.28125 C 131.921875 33.179688 131.125 33.890625 130.246094 34.410156 C 129.371094 34.933594 128.34375 35.210938 127.164062 35.246094 C 125.808594 35.257812 124.617188 35 123.597656 34.46875 C 122.582031 33.941406 121.746094 33.234375 121.09375 32.351562 C 120.4375 31.472656 119.992188 30.496094 119.757812 29.421875 C 119.519531 28.34375 119.519531 27.261719 119.757812 26.171875 C 119.992188 25.078125 120.476562 24.050781 121.210938 23.101562 C 121.941406 22.148438 122.941406 21.347656 124.210938 20.714844 C 125.488281 20.078125 127.058594 19.691406 128.933594 19.550781 C 128.320312 19.457031 127.695312 19.21875 127.058594 18.832031 C 126.417969 18.441406 125.835938 17.921875 125.308594 17.277344 C 124.789062 16.628906 124.382812 15.835938 124.09375 14.902344 C 123.808594 13.96875 123.695312 12.902344 123.761719 11.703125 C 122.34375 11.15625 121.097656 10.855469 120.03125 10.808594 C 118.957031 10.761719 118.039062 10.894531 117.277344 11.207031 C 116.519531 11.523438 115.921875 11.957031 115.480469 12.511719 C 115.039062 13.0625 114.742188 13.671875 114.585938 14.335938 C 114.433594 15.003906 114.417969 15.667969 114.535156 16.324219 C 114.660156 16.984375 114.917969 17.578125 115.304688 18.101562 C 115.6875 18.621094 116.195312 19.015625 116.816406 19.289062 C 117.445312 19.558594 118.191406 19.628906 119.050781 19.503906 C 119.355469 19.519531 119.519531 19.597656 119.546875 19.738281 C 119.570312 19.871094 119.511719 19.972656 119.378906 20.042969 C 119.253906 20.113281 119.109375 20.078125 118.953125 19.9375 C 118.0625 20.0625 117.28125 19.980469 116.617188 19.679688 C 115.945312 19.382812 115.402344 18.945312 114.984375 18.371094 C 114.566406 17.792969 114.28125 17.144531 114.136719 16.429688 C 113.992188 15.71875 113.992188 14.996094 114.136719 14.265625 C 114.28125 13.539062 114.585938 12.871094 115.03125 12.265625 C 115.480469 11.664062 116.101562 11.191406 116.898438 10.84375 C 117.703125 10.5 118.675781 10.347656 119.816406 10.394531 C 120.964844 10.4375 122.304688 10.742188 123.832031 11.3125 C 124.074219 9.839844 124.507812 8.589844 125.132812 7.558594 C 125.761719 6.535156 126.507812 5.722656 127.375 5.125 C 128.25 4.523438 129.183594 4.117188 130.175781 3.914062 C 131.167969 3.710938 132.140625 3.691406 133.09375 3.855469 C 134.113281 4.027344 134.925781 4.347656 135.515625 4.820312 C 136.105469 5.285156 136.476562 5.828125 136.636719 6.453125 C 136.800781 7.082031 136.765625 7.730469 136.53125 8.394531 C 136.292969 9.0625 135.867188 9.691406 135.253906 10.277344 C 134.644531 10.859375 133.859375 11.335938 132.890625 11.714844 C 131.921875 12.089844 130.792969 12.3125 129.503906 12.371094 C 128.21875 12.4375 126.777344 12.273438 125.179688 11.890625 C 125.113281 12.683594 125.132812 13.476562 125.226562 14.277344 C 125.328125 15.078125 125.546875 15.832031 125.875 16.539062 C 126.207031 17.242188 126.679688 17.84375 127.292969 18.335938 C 127.914062 18.824219 128.71875 19.136719 129.703125 19.277344 C 129.867188 19.296875 129.945312 19.347656 129.9375 19.445312 C 129.929688 19.53125 129.867188 19.597656 129.75 19.644531 C 128.820312 19.738281 127.894531 19.921875 126.976562 20.195312 C 125.761719 20.582031 124.761719 21.132812 123.972656 21.855469 C 123.1875 22.578125 122.582031 23.394531 122.167969 24.300781 C 121.746094 25.214844 121.496094 26.15625 121.410156 27.125 C 121.332031 28.105469 121.40625 29.058594 121.636719 29.984375 C 121.871094 30.910156 122.238281 31.742188 122.734375 32.480469 C 123.234375 33.214844 123.859375 33.796875 124.601562 34.222656 C 125.339844 34.644531 126.175781 34.839844 127.117188 34.808594 C 128.226562 34.777344 129.207031 34.492188 130.058594 33.949219 C 130.914062 33.414062 131.699219 32.695312 132.40625 31.785156 C 133.117188 30.882812 133.800781 29.855469 134.464844 28.703125 C 135.125 27.554688 135.816406 26.351562 136.542969 25.078125 C 137.265625 23.800781 138.082031 22.527344 138.988281 21.253906 Z M 133.09375 4.289062 C 132.460938 4.15625 131.753906 4.183594 130.96875 4.371094 C 130.1875 4.554688 129.410156 4.921875 128.640625 5.476562 C 127.867188 6.035156 127.179688 6.808594 126.574219 7.796875 C 125.964844 8.777344 125.535156 10.007812 125.285156 11.488281 C 127.070312 11.890625 128.652344 12.023438 130.023438 11.890625 C 131.390625 11.75 132.539062 11.441406 133.472656 10.960938 C 134.40625 10.476562 135.113281 9.902344 135.585938 9.242188 C 136.0625 8.582031 136.296875 7.914062 136.28125 7.230469 C 136.265625 6.546875 135.992188 5.941406 135.46875 5.40625 C 134.949219 4.867188 134.15625 4.496094 133.09375 4.289062 Z M 133.09375 4.289062 " fill-opacity="1" fill-rule="nonzero"/></g><g clip-path="url(#b7c23f38e0)"><path fill="#000000" d="M 162.46875 34.785156 C 163.011719 34.738281 163.511719 34.375 163.96875 33.691406 C 164.433594 33.007812 164.875 32.085938 165.292969 30.925781 C 165.710938 29.773438 166.113281 28.457031 166.507812 26.984375 C 166.910156 25.511719 167.3125 23.945312 167.714844 22.289062 C 168.117188 20.636719 168.535156 18.980469 168.976562 17.324219 C 169.425781 15.664062 169.902344 14.066406 170.40625 12.539062 C 170.910156 11 171.464844 9.617188 172.074219 8.382812 C 172.679688 7.144531 173.347656 6.125 174.082031 5.324219 C 174.8125 4.519531 175.621094 4.019531 176.515625 3.832031 C 176.589844 3.816406 176.625 3.863281 176.609375 3.972656 C 176.589844 4.082031 176.589844 4.15625 176.609375 4.195312 C 175.765625 4.355469 174.992188 4.832031 174.292969 5.628906 C 173.589844 6.425781 172.949219 7.449219 172.367188 8.703125 C 171.792969 9.949219 171.25 11.347656 170.75 12.902344 C 170.253906 14.449219 169.785156 16.066406 169.34375 17.761719 C 168.902344 19.449219 168.46875 21.132812 168.046875 22.808594 C 167.625 24.488281 167.210938 26.074219 166.804688 27.5625 C 166.394531 29.058594 165.960938 30.378906 165.503906 31.527344 C 165.054688 32.671875 164.574219 33.566406 164.050781 34.222656 C 163.539062 34.871094 162.988281 35.1875 162.398438 35.175781 C 161.71875 35.140625 161.195312 34.828125 160.828125 34.234375 C 160.457031 33.636719 160.203125 32.820312 160.058594 31.785156 C 159.925781 30.75 159.871094 29.5625 159.894531 28.21875 C 159.917969 26.886719 159.972656 25.460938 160.058594 23.9375 C 160.15625 22.410156 160.25 20.859375 160.34375 19.289062 C 160.4375 17.714844 160.496094 16.179688 160.519531 14.691406 C 160.542969 13.191406 160.496094 11.800781 160.378906 10.511719 C 160.261719 9.21875 160.023438 8.089844 159.671875 7.125 C 159.316406 6.160156 158.8125 5.429688 158.160156 4.925781 C 157.503906 4.425781 156.652344 4.21875 155.605469 4.3125 C 154.425781 4.425781 153.320312 4.804688 152.289062 5.453125 C 151.261719 6.105469 150.355469 7.007812 149.570312 8.160156 C 148.792969 9.3125 148.183594 10.699219 147.753906 12.3125 C 147.316406 13.929688 147.101562 15.75 147.101562 17.773438 C 148.402344 18.441406 149.417969 19.125 150.148438 19.832031 C 150.886719 20.539062 151.394531 21.21875 151.660156 21.878906 C 151.9375 22.539062 152.050781 23.136719 152.003906 23.667969 C 151.957031 24.195312 151.796875 24.625 151.53125 24.960938 C 151.261719 25.300781 150.953125 25.492188 150.597656 25.539062 C 149.992188 25.625 149.386719 25.417969 148.78125 24.914062 C 148.171875 24.40625 147.660156 23.582031 147.246094 22.445312 C 146.824219 21.300781 146.601562 19.8125 146.570312 17.984375 C 145.308594 17.492188 144.199219 17.273438 143.242188 17.324219 C 142.285156 17.382812 141.5 17.628906 140.878906 18.066406 C 140.253906 18.507812 139.804688 19.0625 139.53125 19.738281 C 139.253906 20.414062 139.175781 21.132812 139.296875 21.890625 C 139.417969 22.644531 139.75 23.355469 140.289062 24.019531 L 139.648438 24.019531 C 139.152344 23.21875 138.886719 22.410156 138.847656 21.585938 C 138.808594 20.753906 138.957031 19.992188 139.308594 19.300781 C 139.652344 18.613281 140.171875 18.050781 140.867188 17.621094 C 141.558594 17.191406 142.390625 16.957031 143.359375 16.925781 C 144.332031 16.894531 145.417969 17.132812 146.617188 17.644531 C 146.695312 15.382812 147.003906 13.394531 147.539062 11.679688 C 148.082031 9.960938 148.785156 8.523438 149.652344 7.359375 C 150.527344 6.191406 151.503906 5.320312 152.582031 4.75 C 153.660156 4.167969 154.78125 3.902344 155.9375 3.949219 C 157.167969 3.996094 158.183594 4.320312 158.984375 4.925781 C 159.792969 5.53125 160.429688 6.34375 160.886719 7.359375 C 161.34375 8.382812 161.667969 9.554688 161.855469 10.878906 C 162.050781 12.195312 162.152344 13.609375 162.164062 15.113281 C 162.167969 16.613281 162.117188 18.136719 162.007812 19.691406 C 161.898438 21.238281 161.765625 22.75 161.621094 24.230469 C 161.476562 25.714844 161.351562 27.101562 161.242188 28.398438 C 161.136719 29.691406 161.09375 30.820312 161.113281 31.785156 C 161.125 32.757812 161.234375 33.507812 161.429688 34.03125 C 161.632812 34.566406 161.980469 34.816406 162.46875 34.785156 Z M 150.753906 25.207031 C 150.972656 25.160156 151.164062 24.984375 151.332031 24.679688 C 151.503906 24.375 151.589844 23.984375 151.589844 23.515625 C 151.589844 23.039062 151.449219 22.507812 151.164062 21.925781 C 150.886719 21.335938 150.421875 20.722656 149.761719 20.078125 C 149.097656 19.4375 148.183594 18.800781 147.019531 18.171875 C 147.105469 19.71875 147.28125 20.96875 147.539062 21.925781 C 147.804688 22.875 148.125 23.605469 148.496094 24.113281 C 148.867188 24.617188 149.246094 24.945312 149.640625 25.101562 C 150.042969 25.253906 150.414062 25.289062 150.753906 25.207031 Z M 150.753906 25.207031 " fill-opacity="1" fill-rule="nonzero"/></g><path fill="#000000" d="M 101.878906 51.148438 C 101.824219 51.425781 101.777344 51.65625 101.738281 51.84375 C 101.695312 52.03125 101.671875 52.136719 101.667969 52.160156 L 96.777344 52.160156 L 96.777344 52.007812 C 96.941406 52.007812 97.066406 51.960938 97.15625 51.867188 C 97.242188 51.773438 97.285156 51.617188 97.285156 51.40625 L 97.285156 46.265625 C 97.285156 46.085938 97.242188 45.945312 97.167969 45.84375 C 97.085938 45.734375 96.984375 45.675781 96.859375 45.675781 L 96.777344 45.675781 L 96.777344 45.511719 L 101.609375 45.511719 C 101.609375 45.675781 101.609375 45.851562 101.621094 46.03125 C 101.632812 46.210938 101.644531 46.378906 101.65625 46.535156 L 101.511719 46.535156 L 101.453125 46.394531 C 101.34375 46.160156 101.171875 45.976562 100.933594 45.84375 C 100.699219 45.710938 100.4375 45.640625 100.15625 45.640625 L 97.78125 45.640625 L 97.78125 48.160156 L 99.871094 48.160156 C 100.113281 48.160156 100.328125 48.125 100.507812 48.054688 C 100.691406 47.976562 100.796875 47.871094 100.839844 47.738281 L 100.875 47.664062 L 101.003906 47.664062 L 101.003906 48.84375 L 100.875 48.84375 L 100.839844 48.761719 C 100.785156 48.617188 100.667969 48.507812 100.496094 48.417969 C 100.324219 48.324219 100.113281 48.277344 99.871094 48.277344 L 97.78125 48.277344 L 97.78125 52.03125 L 100.226562 52.03125 C 100.507812 52.03125 100.78125 51.964844 101.039062 51.832031 C 101.300781 51.699219 101.503906 51.511719 101.65625 51.277344 L 101.75 51.148438 Z M 101.878906 51.148438 " fill-opacity="1" fill-rule="nonzero"/><path fill="#000000" d="M 109.691406 45.570312 C 109.695312 45.570312 109.707031 45.625 109.714844 45.722656 C 109.730469 45.828125 109.742188 45.945312 109.761719 46.078125 C 109.785156 46.203125 109.800781 46.324219 109.808594 46.441406 C 109.824219 46.554688 109.832031 46.617188 109.832031 46.628906 L 109.679688 46.628906 L 109.550781 46.382812 C 109.421875 46.15625 109.246094 45.976562 109.027344 45.84375 C 108.816406 45.710938 108.597656 45.640625 108.378906 45.640625 L 106.996094 45.640625 L 106.996094 51.40625 C 106.996094 51.589844 107.03125 51.734375 107.105469 51.84375 C 107.179688 51.953125 107.285156 52.007812 107.421875 52.007812 L 107.492188 52.007812 L 107.492188 52.160156 L 105.980469 52.160156 L 105.980469 52.007812 C 106.148438 52.007812 106.269531 51.960938 106.347656 51.867188 C 106.433594 51.773438 106.476562 51.617188 106.476562 51.40625 L 106.476562 45.640625 L 105.109375 45.640625 C 104.886719 45.640625 104.664062 45.710938 104.445312 45.84375 C 104.234375 45.976562 104.058594 46.15625 103.925781 46.382812 L 103.808594 46.628906 L 103.644531 46.628906 C 103.644531 46.605469 103.648438 46.542969 103.667969 46.429688 C 103.679688 46.320312 103.695312 46.203125 103.714844 46.078125 C 103.730469 45.945312 103.742188 45.828125 103.761719 45.722656 C 103.777344 45.625 103.785156 45.570312 103.785156 45.570312 L 103.796875 45.511719 L 109.691406 45.511719 Z M 109.691406 45.570312 " fill-opacity="1" fill-rule="nonzero"/><path fill="#000000" d="M 116.769531 51.148438 C 116.714844 51.425781 116.667969 51.65625 116.628906 51.84375 C 116.589844 52.03125 116.566406 52.136719 116.558594 52.160156 L 111.667969 52.160156 L 111.667969 52.007812 C 111.835938 52.007812 111.957031 51.960938 112.046875 51.867188 C 112.132812 51.773438 112.175781 51.617188 112.175781 51.40625 L 112.175781 46.265625 C 112.175781 46.085938 112.136719 45.945312 112.058594 45.84375 C 111.980469 45.734375 111.875 45.675781 111.75 45.675781 L 111.667969 45.675781 L 111.667969 45.511719 L 116.5 45.511719 C 116.5 45.675781 116.503906 45.851562 116.511719 46.03125 C 116.527344 46.210938 116.539062 46.378906 116.546875 46.535156 L 116.40625 46.535156 L 116.347656 46.394531 C 116.234375 46.160156 116.0625 45.976562 115.828125 45.84375 C 115.589844 45.710938 115.332031 45.640625 115.046875 45.640625 L 112.671875 45.640625 L 112.671875 48.160156 L 114.761719 48.160156 C 115.003906 48.160156 115.21875 48.125 115.402344 48.054688 C 115.582031 47.976562 115.691406 47.871094 115.730469 47.738281 L 115.765625 47.664062 L 115.898438 47.664062 L 115.898438 48.84375 L 115.765625 48.84375 L 115.730469 48.761719 C 115.675781 48.617188 115.5625 48.507812 115.390625 48.417969 C 115.214844 48.324219 115.003906 48.277344 114.761719 48.277344 L 112.671875 48.277344 L 112.671875 52.03125 L 115.117188 52.03125 C 115.402344 52.03125 115.671875 51.964844 115.933594 51.832031 C 116.191406 51.699219 116.394531 51.511719 116.546875 51.277344 L 116.640625 51.148438 Z M 116.769531 51.148438 " fill-opacity="1" fill-rule="nonzero"/><path fill="#000000" d="M 124.277344 52.066406 L 124.277344 52.171875 L 123.980469 52.171875 C 123.886719 52.171875 123.792969 52.164062 123.707031 52.148438 C 123.628906 52.125 123.546875 52.089844 123.460938 52.042969 C 123.378906 51.996094 123.289062 51.925781 123.1875 51.832031 C 123.09375 51.738281 122.976562 51.613281 122.835938 51.453125 C 122.691406 51.296875 122.519531 51.105469 122.328125 50.878906 C 122.128906 50.640625 121.890625 50.367188 121.605469 50.042969 C 121.566406 50.050781 121.527344 50.054688 121.488281 50.054688 C 121.445312 50.054688 121.40625 50.054688 121.359375 50.054688 L 119.726562 50.054688 L 119.726562 51.40625 C 119.726562 51.582031 119.765625 51.726562 119.847656 51.84375 C 119.921875 51.953125 120.027344 52.007812 120.152344 52.007812 L 120.234375 52.007812 L 120.234375 52.160156 L 118.699219 52.160156 L 118.699219 52.007812 L 118.769531 52.007812 C 118.902344 52.007812 119.011719 51.953125 119.089844 51.84375 C 119.167969 51.726562 119.207031 51.582031 119.207031 51.40625 L 119.207031 46.265625 C 119.207031 46.085938 119.167969 45.941406 119.089844 45.832031 C 119.011719 45.722656 118.902344 45.664062 118.769531 45.664062 L 118.699219 45.664062 L 118.699219 45.511719 L 121.757812 45.511719 C 122.082031 45.511719 122.375 45.570312 122.644531 45.675781 C 122.910156 45.789062 123.140625 45.945312 123.332031 46.148438 C 123.519531 46.34375 123.664062 46.582031 123.769531 46.867188 C 123.867188 47.148438 123.921875 47.460938 123.921875 47.796875 C 123.921875 48.070312 123.875 48.324219 123.792969 48.558594 C 123.710938 48.796875 123.59375 49.007812 123.4375 49.195312 C 123.285156 49.378906 123.101562 49.535156 122.882812 49.664062 C 122.667969 49.792969 122.425781 49.890625 122.148438 49.960938 C 122.574219 50.464844 122.910156 50.855469 123.164062 51.136719 C 123.417969 51.417969 123.613281 51.628906 123.753906 51.773438 C 123.898438 51.90625 123.996094 51.988281 124.0625 52.019531 C 124.132812 52.050781 124.195312 52.066406 124.25 52.066406 Z M 121.359375 49.925781 C 121.65625 49.925781 121.929688 49.875 122.171875 49.773438 C 122.425781 49.671875 122.636719 49.523438 122.8125 49.335938 C 122.992188 49.148438 123.128906 48.925781 123.222656 48.664062 C 123.324219 48.402344 123.378906 48.109375 123.378906 47.796875 C 123.378906 47.476562 123.335938 47.183594 123.257812 46.925781 C 123.179688 46.660156 123.070312 46.429688 122.929688 46.242188 C 122.789062 46.054688 122.613281 45.910156 122.410156 45.808594 C 122.210938 45.699219 121.996094 45.640625 121.757812 45.640625 L 119.726562 45.640625 L 119.726562 49.925781 Z M 121.359375 49.925781 " fill-opacity="1" fill-rule="nonzero"/><path fill="#000000" d="M 126.859375 51.40625 C 126.859375 51.589844 126.894531 51.734375 126.964844 51.84375 C 127.042969 51.953125 127.144531 52.007812 127.273438 52.007812 L 127.355469 52.007812 L 127.355469 52.160156 L 126.207031 52.160156 L 126.207031 52.007812 C 126.367188 52.007812 126.488281 51.960938 126.574219 51.867188 C 126.660156 51.773438 126.703125 51.617188 126.703125 51.40625 L 126.703125 46.265625 C 126.703125 46.078125 126.664062 45.933594 126.585938 45.832031 C 126.507812 45.722656 126.402344 45.664062 126.28125 45.664062 L 126.207031 45.664062 L 126.207031 45.511719 L 127.164062 45.511719 L 131.773438 51.417969 L 131.773438 46.265625 C 131.773438 46.078125 131.730469 45.933594 131.652344 45.832031 C 131.582031 45.722656 131.484375 45.664062 131.359375 45.664062 L 131.289062 45.664062 L 131.289062 45.511719 L 132.433594 45.511719 L 132.433594 45.664062 C 132.269531 45.664062 132.140625 45.71875 132.054688 45.820312 C 131.976562 45.914062 131.9375 46.0625 131.9375 46.265625 L 131.9375 52.253906 L 131.773438 52.253906 L 131.546875 51.949219 L 126.859375 45.960938 Z M 126.859375 51.40625 " fill-opacity="1" fill-rule="nonzero"/><path fill="#000000" d="M 135.542969 52.160156 L 134.207031 52.160156 L 134.207031 52.007812 C 134.363281 52.007812 134.492188 51.964844 134.597656 51.878906 C 134.707031 51.785156 134.800781 51.640625 134.878906 51.453125 L 137.335938 45.5 L 137.492188 45.5 L 140.042969 51.40625 C 140.117188 51.59375 140.214844 51.746094 140.324219 51.855469 C 140.433594 51.957031 140.566406 52.007812 140.714844 52.007812 L 140.714844 52.160156 L 139.144531 52.160156 L 139.144531 52.007812 L 139.238281 52.007812 C 139.355469 52.007812 139.441406 51.980469 139.5 51.925781 C 139.5625 51.863281 139.59375 51.78125 139.59375 51.679688 C 139.59375 51.640625 139.585938 51.601562 139.582031 51.558594 C 139.574219 51.523438 139.558594 51.476562 139.535156 51.429688 C 139.515625 51.378906 139.488281 51.308594 139.453125 51.230469 C 139.417969 51.152344 139.378906 51.054688 139.332031 50.9375 C 139.007812 50.929688 138.703125 50.882812 138.410156 50.796875 C 138.128906 50.703125 137.851562 50.605469 137.585938 50.5 C 137.324219 50.390625 137.066406 50.296875 136.816406 50.21875 C 136.570312 50.132812 136.328125 50.089844 136.085938 50.089844 C 135.902344 50.089844 135.730469 50.117188 135.566406 50.171875 C 135.445312 50.464844 135.351562 50.695312 135.28125 50.867188 C 135.210938 51.03125 135.15625 51.160156 135.117188 51.253906 C 135.082031 51.34375 135.0625 51.40625 135.058594 51.453125 C 135.046875 51.5 135.046875 51.546875 135.046875 51.59375 C 135.046875 51.722656 135.074219 51.824219 135.140625 51.902344 C 135.210938 51.972656 135.3125 52.007812 135.445312 52.007812 L 135.542969 52.007812 Z M 137.242188 46.101562 L 135.636719 50.007812 C 135.769531 49.96875 135.917969 49.949219 136.085938 49.949219 C 136.335938 49.949219 136.585938 49.992188 136.828125 50.078125 C 137.082031 50.15625 137.332031 50.25 137.585938 50.359375 C 137.84375 50.464844 138.109375 50.558594 138.386719 50.640625 C 138.671875 50.730469 138.96875 50.78125 139.273438 50.796875 Z M 137.242188 46.101562 " fill-opacity="1" fill-rule="nonzero"/><path fill="#000000" d="M 144.011719 45.675781 C 143.851562 45.675781 143.730469 45.722656 143.644531 45.820312 C 143.566406 45.914062 143.527344 46.0625 143.527344 46.265625 L 143.527344 52.03125 L 146.042969 52.03125 C 146.105469 52.03125 146.191406 52.023438 146.304688 52.007812 C 146.421875 51.984375 146.546875 51.941406 146.679688 51.878906 C 146.816406 51.808594 146.949219 51.710938 147.082031 51.582031 C 147.214844 51.453125 147.324219 51.273438 147.414062 51.042969 L 147.496094 51.066406 C 147.519531 51.074219 147.539062 51.082031 147.554688 51.089844 C 147.578125 51.089844 147.601562 51.09375 147.625 51.101562 C 147.585938 51.265625 147.554688 51.417969 147.53125 51.558594 C 147.5 51.6875 147.472656 51.808594 147.449219 51.925781 C 147.433594 52.035156 147.417969 52.113281 147.402344 52.160156 L 142.511719 52.160156 L 142.511719 52.007812 C 142.675781 52.007812 142.800781 51.960938 142.890625 51.867188 C 142.976562 51.773438 143.019531 51.617188 143.019531 51.40625 L 143.019531 46.265625 C 143.019531 46.085938 142.980469 45.945312 142.902344 45.84375 C 142.832031 45.734375 142.726562 45.675781 142.59375 45.675781 L 142.511719 45.675781 L 142.511719 45.511719 L 144.011719 45.511719 Z M 144.011719 45.675781 " fill-opacity="1" fill-rule="nonzero"/><path fill="#000000" d="M 157.8125 51.582031 C 157.75 51.628906 157.660156 51.691406 157.542969 51.761719 C 157.425781 51.832031 157.273438 51.902344 157.09375 51.972656 C 156.910156 52.035156 156.695312 52.089844 156.445312 52.136719 C 156.199219 52.175781 155.914062 52.195312 155.59375 52.195312 C 155.277344 52.195312 154.992188 52.15625 154.730469 52.078125 C 154.472656 51.992188 154.25 51.878906 154.070312 51.738281 C 153.886719 51.59375 153.746094 51.425781 153.644531 51.21875 C 153.539062 51.015625 153.492188 50.792969 153.492188 50.546875 C 153.492188 50.355469 153.527344 50.160156 153.609375 49.972656 C 153.695312 49.777344 153.8125 49.59375 153.964844 49.417969 C 154.109375 49.25 154.292969 49.089844 154.507812 48.949219 C 154.71875 48.800781 154.957031 48.671875 155.226562 48.558594 C 155.042969 48.277344 154.898438 48.011719 154.789062 47.761719 C 154.6875 47.511719 154.636719 47.277344 154.636719 47.066406 C 154.636719 46.816406 154.671875 46.59375 154.742188 46.394531 C 154.8125 46.199219 154.910156 46.03125 155.039062 45.890625 C 155.160156 45.746094 155.316406 45.640625 155.5 45.570312 C 155.679688 45.496094 155.878906 45.453125 156.101562 45.453125 C 156.550781 45.453125 156.90625 45.566406 157.175781 45.785156 C 157.441406 45.996094 157.578125 46.285156 157.578125 46.640625 C 157.578125 46.863281 157.53125 47.070312 157.4375 47.265625 C 157.347656 47.460938 157.21875 47.640625 157.046875 47.796875 C 156.878906 47.953125 156.679688 48.089844 156.445312 48.207031 C 156.207031 48.320312 155.941406 48.394531 155.652344 48.441406 C 155.808594 48.671875 155.996094 48.925781 156.21875 49.207031 C 156.4375 49.488281 156.667969 49.773438 156.90625 50.054688 C 157.050781 50.203125 157.222656 50.378906 157.414062 50.582031 C 157.601562 50.78125 157.8125 50.992188 158.050781 51.21875 C 158.246094 51.039062 158.410156 50.832031 158.546875 50.59375 C 158.679688 50.359375 158.746094 50.085938 158.746094 49.773438 C 158.746094 49.453125 158.65625 49.164062 158.476562 48.914062 C 158.292969 48.652344 158.019531 48.472656 157.660156 48.359375 L 157.695312 48.242188 C 157.933594 48.3125 158.132812 48.40625 158.296875 48.523438 C 158.464844 48.640625 158.597656 48.773438 158.699219 48.914062 C 158.800781 49.054688 158.875 49.203125 158.925781 49.347656 C 158.976562 49.5 159.007812 49.640625 159.007812 49.773438 C 159.007812 49.960938 158.972656 50.136719 158.902344 50.300781 C 158.835938 50.464844 158.757812 50.617188 158.664062 50.75 C 158.570312 50.882812 158.46875 51 158.367188 51.101562 C 158.273438 51.195312 158.199219 51.265625 158.144531 51.3125 C 158.230469 51.402344 158.308594 51.476562 158.378906 51.546875 C 158.453125 51.613281 158.511719 51.671875 158.558594 51.726562 C 158.621094 51.78125 158.671875 51.828125 158.710938 51.867188 C 158.882812 52.03125 159.046875 52.164062 159.195312 52.265625 C 159.34375 52.375 159.484375 52.460938 159.621094 52.523438 C 159.753906 52.59375 159.882812 52.644531 160 52.667969 C 160.121094 52.691406 160.246094 52.703125 160.363281 52.703125 C 160.460938 52.703125 160.554688 52.691406 160.648438 52.679688 L 160.648438 52.75 C 160.558594 52.761719 160.472656 52.773438 160.390625 52.785156 C 160.308594 52.789062 160.226562 52.796875 160.140625 52.796875 C 159.871094 52.796875 159.601562 52.742188 159.324219 52.644531 C 159.046875 52.546875 158.75 52.371094 158.429688 52.113281 Z M 154.992188 46.855469 C 154.992188 47.074219 155.042969 47.3125 155.15625 47.570312 C 155.273438 47.824219 155.429688 48.09375 155.628906 48.382812 C 155.863281 48.34375 156.082031 48.273438 156.277344 48.171875 C 156.472656 48.0625 156.636719 47.933594 156.773438 47.785156 C 156.917969 47.636719 157.023438 47.464844 157.09375 47.277344 C 157.171875 47.089844 157.210938 46.886719 157.210938 46.664062 C 157.210938 46.332031 157.109375 46.058594 156.90625 45.855469 C 156.699219 45.640625 156.421875 45.535156 156.078125 45.535156 C 155.746094 45.535156 155.480469 45.660156 155.285156 45.902344 C 155.089844 46.144531 154.992188 46.460938 154.992188 46.855469 Z M 157.71875 51.5 C 157.449219 51.25 157.210938 51.019531 157 50.808594 C 156.792969 50.589844 156.621094 50.390625 156.480469 50.207031 C 156.242188 49.933594 156.019531 49.660156 155.804688 49.382812 C 155.59375 49.109375 155.410156 48.859375 155.261719 48.628906 C 154.851562 48.8125 154.523438 49.058594 154.28125 49.371094 C 154.046875 49.675781 153.929688 50.011719 153.929688 50.371094 C 153.929688 50.617188 153.96875 50.835938 154.058594 51.03125 C 154.152344 51.226562 154.285156 51.394531 154.460938 51.535156 C 154.628906 51.679688 154.835938 51.789062 155.074219 51.867188 C 155.308594 51.945312 155.570312 51.984375 155.851562 51.984375 C 156.238281 51.984375 156.589844 51.945312 156.90625 51.867188 C 157.21875 51.78125 157.488281 51.660156 157.71875 51.5 Z M 157.71875 51.5 " fill-opacity="1" fill-rule="nonzero"/><path fill="#000000" d="M 170.207031 45.511719 L 171.542969 45.511719 L 171.542969 45.675781 C 171.382812 45.675781 171.25 45.722656 171.140625 45.808594 C 171.039062 45.894531 170.945312 46.03125 170.859375 46.21875 L 168.414062 52.160156 L 168.257812 52.160156 L 165.707031 46.265625 C 165.628906 46.078125 165.535156 45.933594 165.425781 45.832031 C 165.3125 45.730469 165.179688 45.675781 165.023438 45.675781 L 165.023438 45.511719 L 166.605469 45.511719 L 166.605469 45.675781 L 166.5 45.675781 C 166.386719 45.675781 166.300781 45.707031 166.238281 45.761719 C 166.183594 45.816406 166.15625 45.890625 166.15625 45.984375 C 166.15625 46.070312 166.175781 46.164062 166.214844 46.265625 L 168.507812 51.570312 L 170.632812 46.40625 C 170.679688 46.289062 170.703125 46.179688 170.703125 46.078125 C 170.703125 45.945312 170.667969 45.847656 170.597656 45.785156 C 170.527344 45.710938 170.425781 45.675781 170.300781 45.675781 L 170.207031 45.675781 Z M 170.207031 45.511719 " fill-opacity="1" fill-rule="nonzero"/><path fill="#000000" d="M 179.847656 48.808594 C 179.847656 49.261719 179.773438 49.699219 179.632812 50.113281 C 179.492188 50.523438 179.28125 50.878906 179.007812 51.183594 C 178.730469 51.488281 178.382812 51.734375 177.96875 51.914062 C 177.546875 52.09375 177.070312 52.183594 176.527344 52.183594 C 175.972656 52.183594 175.492188 52.09375 175.074219 51.914062 C 174.664062 51.734375 174.320312 51.488281 174.046875 51.183594 C 173.769531 50.878906 173.5625 50.523438 173.421875 50.113281 C 173.277344 49.699219 173.207031 49.261719 173.207031 48.808594 C 173.207031 48.359375 173.277344 47.933594 173.421875 47.523438 C 173.5625 47.117188 173.769531 46.761719 174.046875 46.453125 C 174.320312 46.140625 174.664062 45.898438 175.074219 45.722656 C 175.492188 45.546875 175.972656 45.453125 176.527344 45.453125 C 177.070312 45.453125 177.546875 45.546875 177.96875 45.722656 C 178.382812 45.898438 178.730469 46.140625 179.007812 46.453125 C 179.28125 46.761719 179.492188 47.117188 179.632812 47.523438 C 179.773438 47.933594 179.847656 48.359375 179.847656 48.808594 Z M 176.527344 52.066406 C 176.980469 52.066406 177.378906 51.980469 177.71875 51.808594 C 178.066406 51.628906 178.351562 51.390625 178.582031 51.101562 C 178.816406 50.804688 178.988281 50.460938 179.101562 50.066406 C 179.21875 49.664062 179.277344 49.25 179.277344 48.808594 C 179.277344 48.378906 179.21875 47.964844 179.101562 47.570312 C 178.988281 47.179688 178.816406 46.839844 178.582031 46.546875 C 178.351562 46.25 178.066406 46.015625 177.71875 45.84375 C 177.378906 45.664062 176.980469 45.570312 176.527344 45.570312 C 176.070312 45.570312 175.667969 45.664062 175.320312 45.84375 C 174.980469 46.015625 174.695312 46.25 174.460938 46.546875 C 174.222656 46.839844 174.046875 47.179688 173.929688 47.570312 C 173.816406 47.964844 173.761719 48.378906 173.761719 48.808594 C 173.761719 49.25 173.816406 49.664062 173.929688 50.066406 C 174.046875 50.460938 174.222656 50.804688 174.460938 51.101562 C 174.695312 51.390625 174.980469 51.628906 175.320312 51.808594 C 175.667969 51.980469 176.070312 52.066406 176.527344 52.066406 Z M 176.527344 52.066406 " fill-opacity="1" fill-rule="nonzero"/><path fill="#000000" d="M 189.714844 45.511719 L 191.046875 45.511719 L 191.046875 45.664062 C 190.898438 45.664062 190.769531 45.710938 190.660156 45.808594 C 190.554688 45.894531 190.464844 46.03125 190.386719 46.21875 L 187.929688 52.160156 L 187.777344 52.160156 L 186.300781 48.726562 L 184.882812 52.160156 L 184.71875 52.160156 L 182.179688 46.253906 C 182.089844 46.074219 181.992188 45.933594 181.882812 45.832031 C 181.769531 45.722656 181.640625 45.664062 181.492188 45.664062 L 181.492188 45.511719 L 183.074219 45.511719 L 183.074219 45.664062 L 182.96875 45.664062 C 182.855469 45.664062 182.769531 45.699219 182.710938 45.761719 C 182.644531 45.816406 182.613281 45.890625 182.613281 45.984375 C 182.613281 46.078125 182.636719 46.171875 182.6875 46.265625 L 184.976562 51.558594 L 186.21875 48.546875 L 185.226562 46.253906 C 185.144531 46.074219 185.050781 45.933594 184.941406 45.832031 C 184.828125 45.722656 184.699219 45.664062 184.550781 45.664062 L 184.550781 45.511719 L 186.121094 45.511719 L 186.121094 45.664062 L 186.027344 45.664062 C 185.910156 45.664062 185.820312 45.699219 185.757812 45.761719 C 185.699219 45.816406 185.675781 45.890625 185.675781 45.984375 C 185.675781 46.0625 185.699219 46.15625 185.746094 46.265625 L 186.464844 47.949219 L 187.101562 46.40625 C 187.152344 46.285156 187.175781 46.171875 187.175781 46.078125 C 187.175781 45.945312 187.140625 45.84375 187.066406 45.773438 C 186.996094 45.699219 186.898438 45.664062 186.773438 45.664062 L 186.667969 45.664062 L 186.667969 45.511719 L 188 45.511719 L 188 45.664062 C 187.851562 45.664062 187.71875 45.710938 187.609375 45.808594 C 187.507812 45.894531 187.414062 46.03125 187.328125 46.21875 L 186.535156 48.136719 L 188.023438 51.558594 L 190.152344 46.40625 C 190.199219 46.285156 190.222656 46.171875 190.222656 46.078125 C 190.222656 45.945312 190.1875 45.84375 190.117188 45.773438 C 190.042969 45.699219 189.945312 45.664062 189.820312 45.664062 L 189.714844 45.664062 Z M 189.714844 45.511719 " fill-opacity="1" fill-rule="nonzero"/><path fill="#000000" d="M 193.351562 46.6875 C 193.351562 46.863281 193.414062 47.007812 193.542969 47.125 C 193.675781 47.242188 193.847656 47.355469 194.0625 47.453125 C 194.273438 47.546875 194.511719 47.640625 194.78125 47.726562 C 195.046875 47.8125 195.324219 47.90625 195.609375 48.007812 C 195.890625 48.109375 196.167969 48.226562 196.433594 48.347656 C 196.710938 48.464844 196.949219 48.613281 197.15625 48.785156 C 197.367188 48.957031 197.535156 49.160156 197.664062 49.394531 C 197.796875 49.625 197.863281 49.894531 197.863281 50.207031 C 197.863281 50.460938 197.800781 50.707031 197.675781 50.949219 C 197.558594 51.183594 197.390625 51.394531 197.179688 51.582031 C 196.964844 51.773438 196.71875 51.925781 196.433594 52.042969 C 196.152344 52.15625 195.847656 52.207031 195.527344 52.207031 C 195.242188 52.207031 194.964844 52.195312 194.699219 52.171875 C 194.429688 52.148438 194.171875 52.117188 193.929688 52.078125 C 193.695312 52.03125 193.476562 51.980469 193.28125 51.925781 C 193.082031 51.863281 192.917969 51.792969 192.785156 51.714844 L 192.75 50.738281 L 192.914062 50.738281 L 193.046875 50.984375 C 193.167969 51.25 193.351562 51.472656 193.589844 51.640625 C 193.824219 51.816406 194.085938 51.933594 194.367188 51.996094 C 194.5625 52.019531 194.757812 52.039062 194.945312 52.054688 C 195.136719 52.070312 195.328125 52.078125 195.527344 52.078125 C 195.792969 52.078125 196.046875 52.03125 196.28125 51.9375 C 196.523438 51.84375 196.734375 51.71875 196.917969 51.558594 C 197.109375 51.40625 197.253906 51.226562 197.355469 51.03125 C 197.464844 50.828125 197.523438 50.617188 197.523438 50.394531 C 197.523438 50.128906 197.453125 49.898438 197.320312 49.703125 C 197.195312 49.5 197.027344 49.320312 196.8125 49.171875 C 196.601562 49.015625 196.355469 48.878906 196.082031 48.761719 C 195.8125 48.640625 195.539062 48.535156 195.253906 48.441406 C 194.976562 48.34375 194.703125 48.242188 194.4375 48.148438 C 194.171875 48.046875 193.925781 47.9375 193.707031 47.820312 C 193.492188 47.699219 193.324219 47.570312 193.199219 47.417969 C 193.070312 47.273438 193.007812 47.09375 193.007812 46.890625 C 193.007812 46.628906 193.070312 46.414062 193.1875 46.230469 C 193.304688 46.042969 193.460938 45.894531 193.660156 45.785156 C 193.855469 45.675781 194.074219 45.59375 194.320312 45.546875 C 194.570312 45.496094 194.828125 45.464844 195.089844 45.464844 C 195.285156 45.464844 195.484375 45.476562 195.691406 45.5 C 195.894531 45.523438 196.09375 45.558594 196.28125 45.605469 C 196.46875 45.652344 196.640625 45.710938 196.800781 45.773438 C 196.964844 45.828125 197.109375 45.890625 197.238281 45.960938 C 197.207031 46 197.191406 46.027344 197.191406 46.042969 L 197.238281 45.960938 L 197.273438 46.949219 L 197.097656 46.949219 C 197.054688 46.871094 197.015625 46.785156 196.976562 46.6875 C 196.945312 46.589844 196.90625 46.496094 196.859375 46.40625 C 196.8125 46.308594 196.746094 46.207031 196.660156 46.113281 C 196.570312 46.011719 196.457031 45.925781 196.316406 45.855469 C 196.175781 45.777344 196 45.710938 195.796875 45.664062 C 195.589844 45.617188 195.347656 45.59375 195.066406 45.59375 C 194.851562 45.59375 194.644531 45.613281 194.4375 45.640625 C 194.230469 45.675781 194.050781 45.734375 193.882812 45.820312 C 193.722656 45.898438 193.59375 46.011719 193.492188 46.160156 C 193.398438 46.300781 193.351562 46.476562 193.351562 46.6875 Z M 193.351562 46.6875 " fill-opacity="1" fill-rule="nonzero"/><g clip-path="url(#9846ea8e8d)"><g clip-path="url(#9049fdcfed)"><g clip-path="url(#88887051cf)"><g clip-path="url(#7d6e5780ec)"><g clip-path="url(#67d462260f)"><path fill="#000000" d="M 185.800781 22.683594 C 197.21875 18.328125 210.402344 20.9375 222.398438 23.5 C 235.71875 26.351562 254.371094 30.332031 267.207031 25.382812 C 270.742188 24.019531 274.160156 21.878906 275.667969 18.417969 C 276.296875 16.972656 276.363281 16.03125 275.890625 15.117188 C 275.386719 14.144531 273.835938 13.773438 273.511719 14.554688 C 273.402344 14.8125 273.484375 14.960938 273.945312 15.34375 C 274.644531 15.933594 274.773438 16.460938 274.515625 17.65625 C 274.113281 19.519531 272.457031 21.589844 270.160156 23.105469 C 264.601562 26.773438 255.519531 28.070312 243.886719 26.863281 C 227.742188 25.183594 214.65625 20.152344 200.382812 19.960938 C 194.792969 19.886719 190.605469 20.472656 186.980469 21.84375 C 185.460938 22.417969 183.785156 23.222656 183.839844 23.347656 C 183.875 23.417969 185.785156 22.675781 185.800781 22.683594 " fill-opacity="1" fill-rule="nonzero"/></g></g></g></g></g></svg>